<svg width="326" height="237" viewBox="0 0 326 237" fill="none" xmlns="http://www.w3.org/2000/svg">
<g clip-path="url(#clip0_27_427)">
<path opacity="0.52" d="M52.972 219.745C51.0624 220.111 49.0562 220.535 47.6082 221.846C44.8465 224.325 45.4131 229.082 47.839 231.889C50.2649 234.696 53.9583 236.003 57.4923 237.075C87.006 245.962 118.35 246.025 149.164 246.013C158.579 246.013 168.24 245.962 177.033 242.592C183.127 240.26 188.537 236.419 194.547 233.868C217.107 224.288 243.502 234.226 267.354 228.591C270.153 227.931 273.263 226.729 274.237 224.019C276.205 218.556 268.248 215.215 262.443 214.93C236.978 213.67 211.463 213.79 186.01 215.291C165.676 216.489 147.15 210.446 126.74 211.274C101.975 212.268 77.3183 215.1 52.972 219.745Z" fill="url(#paint0_linear_27_427)"/>
<path d="M169.088 214.9H162.331C160.022 214.9 157.807 213.984 156.172 212.352C154.538 210.719 153.616 208.505 153.609 206.193V8.73199C153.61 6.41646 154.529 4.19609 156.165 2.55877C157.8 0.921445 160.018 0.0011135 162.331 0H169.088C166.775 0 164.556 0.919975 162.921 2.55754C161.285 4.19511 160.366 6.41612 160.366 8.73199V206.193C160.372 208.505 161.293 210.72 162.929 212.353C164.564 213.985 166.779 214.901 169.088 214.9Z" fill="#50B848"/>
<path d="M169.088 214.9H162.331C160.022 214.9 157.807 213.984 156.172 212.352C154.538 210.719 153.616 208.505 153.609 206.193V8.73199C153.61 6.41646 154.529 4.19609 156.165 2.55877C157.8 0.921445 160.018 0.0011135 162.331 0H169.088C166.775 0 164.556 0.919975 162.921 2.55754C161.285 4.19511 160.366 6.41612 160.366 8.73199V206.193C160.372 208.505 161.293 210.72 162.929 212.353C164.564 213.985 166.779 214.901 169.088 214.9Z" fill="url(#paint1_linear_27_427)"/>
<path d="M105.591 67.9818C105.591 67.9818 86.3975 92.9255 88.3533 104.12C90.3091 115.314 95.0224 126.719 95.0224 126.719L107.899 71.6712L105.591 67.9818Z" fill="#50B848"/>
<path d="M105.591 67.9818C105.591 67.9818 86.3975 92.9255 88.3533 104.12C90.3091 115.314 95.0224 126.719 95.0224 126.719L107.899 71.6712L105.591 67.9818Z" fill="url(#paint2_linear_27_427)"/>
<path d="M271.513 0H169.075C164.259 0 160.354 3.90944 160.354 8.73199V206.168C160.354 210.991 164.259 214.9 169.075 214.9H271.513C276.33 214.9 280.234 210.991 280.234 206.168V8.73199C280.234 3.90944 276.33 0 271.513 0Z" fill="#50B848"/>
<path opacity="0.34" d="M221.526 24.2168H169.877C169.475 24.2168 169.078 24.1375 168.707 23.9835C168.336 23.8295 167.999 23.6038 167.715 23.3193C167.431 23.0348 167.206 22.697 167.053 22.3254C166.9 21.9538 166.821 21.5555 166.822 21.1534C166.822 20.3421 167.143 19.564 167.716 18.9903C168.289 18.4166 169.067 18.0943 169.877 18.0943H221.526C222.337 18.0943 223.114 18.4165 223.688 18.99C224.262 19.5636 224.585 20.3417 224.586 21.1534C224.586 21.9659 224.263 22.7451 223.69 23.3195C223.116 23.894 222.338 24.2168 221.526 24.2168Z" fill="white"/>
<path opacity="0.34" d="M221.526 55.4342H169.877C169.07 55.4342 168.296 55.1148 167.724 54.5457C167.151 53.9765 166.827 53.2038 166.822 52.3961C166.821 51.994 166.9 51.5958 167.053 51.2241C167.206 50.8525 167.431 50.5148 167.715 50.2302C167.999 49.9457 168.336 49.72 168.707 49.566C169.078 49.412 169.475 49.3328 169.877 49.3328H221.526C222.338 49.3328 223.116 49.6555 223.69 50.23C224.263 50.8045 224.586 51.5837 224.586 52.3961C224.579 53.2042 224.254 53.9769 223.681 54.5459C223.108 55.115 222.333 55.4343 221.526 55.4342Z" fill="white"/>
<path opacity="0.34" d="M221.526 86.6517H169.877C169.067 86.6517 168.289 86.3294 167.716 85.7557C167.143 85.182 166.822 84.4039 166.822 83.5926C166.821 83.1905 166.9 82.7922 167.053 82.4206C167.206 82.049 167.431 81.7112 167.715 81.4267C167.999 81.1422 168.336 80.9165 168.707 80.7625C169.078 80.6085 169.475 80.5292 169.877 80.5292H221.526C222.338 80.5292 223.116 80.852 223.69 81.4265C224.263 82.001 224.586 82.7801 224.586 83.5926C224.585 84.4043 224.262 85.1824 223.688 85.756C223.114 86.3295 222.337 86.6517 221.526 86.6517Z" fill="white"/>
<path opacity="0.34" d="M221.526 117.873H169.877C169.066 117.872 168.289 117.549 167.716 116.975C167.143 116.4 166.822 115.622 166.822 114.81C166.821 114.408 166.9 114.01 167.053 113.638C167.206 113.267 167.431 112.929 167.715 112.644C167.999 112.36 168.336 112.134 168.707 111.98C169.078 111.826 169.475 111.747 169.877 111.747H221.526C222.338 111.747 223.116 112.07 223.69 112.644C224.263 113.218 224.586 113.998 224.586 114.81C224.585 115.622 224.262 116.401 223.688 116.975C223.115 117.549 222.337 117.872 221.526 117.873Z" fill="white"/>
<path opacity="0.34" d="M221.526 149.091H169.877C169.066 149.09 168.289 148.767 167.716 148.192C167.143 147.618 166.822 146.839 166.822 146.028C166.821 145.625 166.9 145.227 167.053 144.856C167.206 144.484 167.431 144.146 167.715 143.862C167.999 143.577 168.336 143.351 168.707 143.197C169.078 143.044 169.475 142.964 169.877 142.964H221.526C222.338 142.964 223.116 143.287 223.69 143.861C224.263 144.436 224.586 145.215 224.586 146.028C224.585 146.84 224.262 147.618 223.688 148.192C223.115 148.767 222.337 149.09 221.526 149.091Z" fill="white"/>
<path opacity="0.34" d="M221.526 180.308H169.877C169.475 180.308 169.078 180.229 168.707 180.075C168.336 179.921 167.999 179.695 167.715 179.411C167.431 179.126 167.206 178.789 167.053 178.417C166.9 178.045 166.821 177.647 166.822 177.245C166.822 176.433 167.143 175.655 167.716 175.08C168.289 174.506 169.066 174.183 169.877 174.182H221.526C222.337 174.183 223.115 174.506 223.688 175.08C224.262 175.654 224.585 176.433 224.586 177.245C224.586 178.057 224.263 178.837 223.69 179.411C223.116 179.986 222.338 180.308 221.526 180.308Z" fill="white"/>
<path d="M96.6467 133.724C100.277 126.736 117.955 141.792 120.188 149.272C122.421 156.751 107.899 183.023 100.361 191.133C92.8232 199.243 78.8511 206.5 69.924 209.017C69.924 209.017 66.7762 204.815 67.4058 203.088C68.0353 201.361 86.536 187.86 88.2106 179.703C89.8852 171.547 93.0162 140.716 96.6467 133.724Z" fill="#302F47"/>
<path d="M181.96 68.6709C181.96 68.6709 179.727 62.1787 180.101 61.4643C180.475 60.7499 182.644 59.1027 183.668 60.065C184.693 61.0273 186.77 66.9943 186.77 66.9943L208.574 59.5397C208.574 59.5397 211.008 59.1615 210.752 61.8257C210.496 64.4898 187.035 73.8269 187.035 73.8269C187.035 73.8269 185.125 75.7851 181.96 68.6709Z" fill="#50B848"/>
<path d="M181.96 68.6709C181.96 68.6709 179.727 62.1787 180.101 61.4643C180.475 60.7499 182.644 59.1027 183.668 60.065C184.693 61.0273 186.77 66.9943 186.77 66.9943L208.574 59.5397C208.574 59.5397 211.008 59.1615 210.752 61.8257C210.496 64.4898 187.035 73.8269 187.035 73.8269C187.035 73.8269 185.125 75.7851 181.96 68.6709Z" fill="url(#paint3_linear_27_427)"/>
<path d="M129.761 31.8352C129.761 31.8352 136.565 43.7272 135.218 50.9338C133.87 58.1404 130.022 56.5226 128.658 60.2499C127.802 62.6939 127.253 65.2344 127.021 67.8137C127.021 67.8137 123.071 71.0241 115.999 62.2879C116.629 58.7315 116.248 55.0696 114.9 51.7196C112.646 46.3367 113.863 26.9061 129.761 31.8352Z" fill="url(#paint4_linear_27_427)"/>
<path d="M108.793 25.7001C98.376 35.6507 94.1033 29.6164 88.899 32.3688C83.6946 35.1212 81.6926 36.1045 83.5813 46.4711C85.47 56.8377 76.1609 54.598 73.9281 60.8718C67.5443 78.8022 78.1251 81.9327 89.9357 81.4369C101.746 80.941 100.634 59.359 109.339 58.5228C118.043 57.6866 119.831 58.9892 123.353 47.7948C125.426 41.2101 123.949 38.3358 126.765 36.1003C130.362 33.2471 131.617 27.0658 127.86 24.431C123.726 21.5316 115.42 19.3717 108.793 25.7001Z" fill="#3F3D56"/>
<path d="M108.054 66.3387C108.054 66.3387 107.185 62.3635 110.039 60.9978C112.893 59.6321 121.074 58.9724 122.211 60.9978C123.348 63.0233 124.595 67.612 125.812 67.7212C127.029 67.8305 132.028 75.7893 132.028 75.7893C132.028 75.7893 133.073 97.9008 133.132 106.486C133.228 120.126 125.065 141.418 113.796 139.682C102.527 137.947 94.3047 134.812 94.4894 128.963C94.674 123.113 104.193 79.0459 103.513 74.0832C102.774 68.7297 107.861 66.1538 108.054 66.3387Z" fill="#50B848"/>
<path d="M108.054 66.3387C108.054 66.3387 107.185 62.3635 110.039 60.9978C112.893 59.6321 121.074 58.9724 122.211 60.9978C123.348 63.0233 124.595 67.612 125.812 67.7212C127.029 67.8305 132.028 75.7893 132.028 75.7893C132.028 75.7893 133.073 97.9008 133.132 106.486C133.228 120.126 125.065 141.418 113.796 139.682C102.527 137.947 94.3047 134.812 94.4894 128.963C94.674 123.113 104.193 79.0459 103.513 74.0832C102.774 68.7297 107.861 66.1538 108.054 66.3387Z" fill="url(#paint5_linear_27_427)"/>
<path d="M118.173 73.2344C118.173 73.2344 122.513 64.6621 128.666 69.8727C134.819 75.0833 142.369 94.35 147.624 94.4593C152.879 94.5685 174.485 77.1382 176.37 78.714C178.254 80.2898 181.528 84.2229 179.765 87.5804C178.002 90.9379 153.844 112.117 143.44 110.133C133.035 108.15 110.858 93.9256 118.173 73.2344Z" fill="#50B848"/>
<path d="M118.173 73.2344C118.173 73.2344 122.513 64.6621 128.666 69.8727C134.819 75.0833 142.369 94.35 147.624 94.4593C152.879 94.5685 174.485 77.1382 176.37 78.714C178.254 80.2898 181.528 84.2229 179.765 87.5804C178.002 90.9379 153.844 112.117 143.44 110.133C133.035 108.15 110.858 93.9256 118.173 73.2344Z" fill="url(#paint6_linear_27_427)"/>
<path d="M177.062 79.3443C177.062 79.3443 181.452 71.1586 181.813 69.6794C182.174 68.2003 183.27 70.4232 183.27 70.4232C183.27 70.4232 187.047 67.4397 187.677 66.1371C188.306 64.8344 193.775 62.8174 196.243 63.141C198.711 63.4645 194.564 64.9815 194.564 64.9815C194.564 64.9815 192.608 65.8765 191.584 70.793C190.56 75.7095 189.523 79.9158 184.991 81.979C180.458 84.0422 180.168 84.5003 180.168 84.5003C180.168 84.5003 179.098 80.1721 177.062 79.3443Z" fill="url(#paint7_linear_27_427)"/>
<path d="M96.6467 133.724C96.6467 133.724 91.2409 146.112 101.293 157.676C111.345 169.24 118.841 178.266 116.721 196.163C114.602 214.06 119.684 223.283 119.684 223.283H125.611C125.611 223.283 134.806 190.129 133.22 176.089C131.633 162.05 124.712 133.766 124.712 133.766C124.712 133.766 111.169 127.295 96.6467 133.724Z" fill="#3F3D56"/>
<path d="M119.684 223.275V230.839H136.011C136.011 230.839 126.236 229.07 125.959 227.057C125.682 225.044 125.611 223.275 125.611 223.275H119.684Z" fill="url(#paint8_linear_27_427)"/>
<path d="M120.893 228.515C120.155 228.364 119.235 228.179 118.769 228.771C118.616 228.993 118.518 229.248 118.484 229.515C118.339 230.249 118.285 230.999 118.325 231.746C118.354 232.305 118.484 232.936 118.967 233.213C119.27 233.351 119.605 233.405 119.936 233.368L136.867 233.057C137.514 233.057 138.261 232.986 138.626 232.452C138.791 232.19 138.865 231.879 138.836 231.57C138.789 231.15 138.652 230.744 138.435 230.382C138.218 230.019 137.925 229.708 137.577 229.469C136.875 228.989 136.095 228.635 135.272 228.423C133.174 227.784 129.816 226.59 127.743 227.46C125.481 228.397 123.39 229.04 120.893 228.515Z" fill="#3F3D56"/>
<path d="M67.2419 204.223L60.5266 207.656L68.7025 221.804C68.7025 221.804 65.3448 212.446 66.9313 211.202C68.5178 209.958 70.0204 209.013 70.0204 209.013L67.2419 204.223Z" fill="url(#paint9_linear_27_427)"/>
<path d="M63.112 207.551C62.877 206.832 62.5748 205.945 61.8277 205.836C61.5614 205.812 61.2933 205.854 61.0471 205.958C60.3381 206.203 59.6616 206.533 59.0325 206.941C58.5666 207.244 58.0881 207.673 58.0881 208.231C58.1204 208.562 58.2407 208.879 58.4365 209.147C61.3521 213.988 64.2676 218.829 67.1832 223.67C67.5189 224.22 67.947 224.838 68.5892 224.889C68.8995 224.899 69.2047 224.808 69.458 224.628C69.8023 224.378 70.0884 224.056 70.2964 223.685C70.5043 223.313 70.6293 222.901 70.6625 222.477C70.7253 221.628 70.6415 220.775 70.4149 219.955C69.9239 217.825 69.2607 214.299 67.477 212.946C65.5127 211.463 63.9095 209.975 63.112 207.551Z" fill="#3F3D56"/>
<path opacity="0.34" d="M257.327 10.1229H239.838C238.519 10.1229 237.45 11.1934 237.45 12.5139V27.2297C237.45 28.5502 238.519 29.6207 239.838 29.6207H257.327C258.646 29.6207 259.715 28.5502 259.715 27.2297V12.5139C259.715 11.1934 258.646 10.1229 257.327 10.1229Z" fill="white"/>
<path opacity="0.34" d="M257.327 44.0087H239.838C238.519 44.0087 237.45 45.0792 237.45 46.3997V61.1155C237.45 62.436 238.519 63.5065 239.838 63.5065H257.327C258.646 63.5065 259.715 62.436 259.715 61.1155V46.3997C259.715 45.0792 258.646 44.0087 257.327 44.0087Z" fill="white"/>
<path opacity="0.34" d="M257.327 74.7556H239.838C238.519 74.7556 237.45 75.826 237.45 77.1466V91.8624C237.45 93.1829 238.519 94.2534 239.838 94.2534H257.327C258.646 94.2534 259.715 93.1829 259.715 91.8624V77.1466C259.715 75.826 258.646 74.7556 257.327 74.7556Z" fill="white"/>
<path opacity="0.34" d="M257.327 135.59H239.838C238.519 135.59 237.45 136.66 237.45 137.981V152.696C237.45 154.017 238.519 155.087 239.838 155.087H257.327C258.646 155.087 259.715 154.017 259.715 152.696V137.981C259.715 136.66 258.646 135.59 257.327 135.59Z" fill="white"/>
<path opacity="0.34" d="M257.327 105.057H239.838C238.519 105.057 237.45 106.127 237.45 107.448V122.164C237.45 123.484 238.519 124.555 239.838 124.555H257.327C258.646 124.555 259.715 123.484 259.715 122.164V107.448C259.715 106.127 258.646 105.057 257.327 105.057Z" fill="white"/>
<path opacity="0.34" d="M257.327 167.496H239.838C238.519 167.496 237.45 168.567 237.45 169.887V184.603C237.45 185.923 238.519 186.994 239.838 186.994H257.327C258.646 186.994 259.715 185.923 259.715 184.603V169.887C259.715 168.567 258.646 167.496 257.327 167.496Z" fill="white"/>
<path d="M239.011 17.027L243.015 23.7503C244.274 25.8514 246.44 26.2716 248.009 24.7673L261.562 11.7071C261.562 11.7071 262.821 9.90439 261.482 8.50929C260.143 7.11419 259.035 8.7194 259.035 8.7194L247.031 20.2668C246.272 20.9601 245.235 20.7332 244.648 19.7373L241.458 14.3292C240.858 13.3165 239.745 13.2241 239.086 14.1569C238.816 14.5839 238.666 15.0762 238.653 15.5815C238.64 16.0868 238.763 16.5863 239.011 17.027Z" fill="#50B848"/>
<path d="M239.011 50.2951L243.015 57.0185C244.274 59.0985 246.44 59.5397 248.01 58.0354L261.562 44.9752C261.562 44.9752 262.821 43.1725 261.482 41.7774C260.143 40.3823 259.035 41.9875 259.035 41.9875L247.032 53.5349C246.272 54.2283 245.235 54.0014 244.648 53.0055L241.458 47.5973C240.854 46.5762 239.746 46.4838 239.087 47.3998C238.812 47.8296 238.659 48.3266 238.646 48.8369C238.632 49.3472 238.759 49.8515 239.011 50.2951Z" fill="#50B848"/>
<path d="M239.011 113.684L243.015 120.407C244.274 122.487 246.44 122.929 248.01 121.424L261.562 108.36C261.562 108.36 262.821 106.557 261.482 105.162C260.143 103.767 259.035 105.372 259.035 105.372L247.032 116.924C246.272 117.617 245.235 117.386 244.648 116.394L241.458 110.986C240.854 109.965 239.746 109.873 239.087 110.789C238.812 111.218 238.659 111.715 238.646 112.226C238.632 112.736 238.759 113.24 239.011 113.684Z" fill="#50B848"/>
<path d="M239.011 144.443L243.015 151.167C244.274 153.247 246.44 153.688 248.01 152.184L261.562 139.123C261.562 139.123 262.821 137.317 261.482 135.921C260.143 134.526 259.035 136.132 259.035 136.132L247.032 147.683C246.272 148.377 245.235 148.145 244.648 147.154L241.458 141.746C240.854 140.724 239.746 140.632 239.087 141.548C238.812 141.978 238.659 142.475 238.646 142.985C238.632 143.495 238.759 144 239.011 144.443Z" fill="#50B848"/>
<path d="M239.011 174.404L243.015 181.128C244.274 183.229 246.44 183.649 248.01 182.149L261.562 169.085C261.562 169.085 262.821 167.282 261.482 165.887C260.143 164.492 259.035 166.097 259.035 166.097L247.032 177.644C246.272 178.342 245.235 178.111 244.648 177.115L241.458 171.736C240.854 170.715 239.746 170.623 239.087 171.539C238.817 171.965 238.668 172.457 238.655 172.961C238.641 173.466 238.764 173.964 239.011 174.404Z" fill="#50B848"/>
<path d="M239.011 17.027L243.015 23.7503C244.274 25.8514 246.44 26.2716 248.009 24.7673L261.562 11.7071C261.562 11.7071 262.821 9.90439 261.482 8.50929C260.143 7.11419 259.035 8.7194 259.035 8.7194L247.031 20.2668C246.272 20.9601 245.235 20.7332 244.648 19.7373L241.458 14.3292C240.858 13.3165 239.745 13.2241 239.086 14.1569C238.816 14.5839 238.666 15.0762 238.653 15.5815C238.64 16.0868 238.763 16.5863 239.011 17.027Z" fill="url(#paint10_linear_27_427)"/>
<path d="M239.011 50.2951L243.015 57.0185C244.274 59.0985 246.44 59.5397 248.01 58.0354L261.562 44.9752C261.562 44.9752 262.821 43.1725 261.482 41.7774C260.143 40.3823 259.035 41.9875 259.035 41.9875L247.032 53.5349C246.272 54.2283 245.235 54.0014 244.648 53.0055L241.458 47.5973C240.854 46.5762 239.746 46.4838 239.087 47.3998C238.812 47.8296 238.659 48.3266 238.646 48.8369C238.632 49.3472 238.759 49.8515 239.011 50.2951Z" fill="url(#paint11_linear_27_427)"/>
<path d="M239.011 113.684L243.015 120.407C244.274 122.487 246.44 122.929 248.01 121.424L261.562 108.36C261.562 108.36 262.821 106.557 261.482 105.162C260.143 103.767 259.035 105.372 259.035 105.372L247.032 116.924C246.272 117.617 245.235 117.386 244.648 116.394L241.458 110.986C240.854 109.965 239.746 109.873 239.087 110.789C238.812 111.218 238.659 111.715 238.646 112.226C238.632 112.736 238.759 113.24 239.011 113.684Z" fill="url(#paint12_linear_27_427)"/>
<path d="M239.011 144.443L243.015 151.167C244.274 153.247 246.44 153.688 248.01 152.184L261.562 139.123C261.562 139.123 262.821 137.317 261.482 135.921C260.143 134.526 259.035 136.132 259.035 136.132L247.032 147.683C246.272 148.377 245.235 148.145 244.648 147.154L241.458 141.746C240.854 140.724 239.746 140.632 239.087 141.548C238.812 141.978 238.659 142.475 238.646 142.985C238.632 143.495 238.759 144 239.011 144.443Z" fill="url(#paint13_linear_27_427)"/>
<path d="M239.011 174.404L243.015 181.128C244.274 183.229 246.44 183.649 248.01 182.149L261.562 169.085C261.562 169.085 262.821 167.282 261.482 165.887C260.143 164.492 259.035 166.097 259.035 166.097L247.032 177.644C246.272 178.342 245.235 178.111 244.648 177.115L241.458 171.736C240.854 170.715 239.746 170.623 239.087 171.539C238.817 171.965 238.668 172.457 238.655 172.961C238.641 173.466 238.764 173.964 239.011 174.404Z" fill="url(#paint14_linear_27_427)"/>
</g>
<defs>
<linearGradient id="paint0_linear_27_427" x1="161.298" y1="185.826" x2="154.664" y2="410.151" gradientUnits="userSpaceOnUse">
<stop stop-opacity="0"/>
<stop offset="0.98"/>
</linearGradient>
<linearGradient id="paint1_linear_27_427" x1="218.521" y1="63.6872" x2="31.8694" y2="213.609" gradientUnits="userSpaceOnUse">
<stop stop-opacity="0"/>
<stop offset="0.98"/>
</linearGradient>
<linearGradient id="paint2_linear_27_427" x1="87.1194" y1="92.3792" x2="130.148" y2="108.595" gradientUnits="userSpaceOnUse">
<stop stop-opacity="0"/>
<stop offset="0.98"/>
</linearGradient>
<linearGradient id="paint3_linear_27_427" x1="199.785" y1="53.4761" x2="168.055" y2="113.077" gradientUnits="userSpaceOnUse">
<stop stop-opacity="0"/>
<stop offset="0.98"/>
</linearGradient>
<linearGradient id="paint4_linear_27_427" x1="114.031" y1="49.711" x2="135.394" y2="49.711" gradientUnits="userSpaceOnUse">
<stop stop-color="#ECC4D7"/>
<stop offset="0.42" stop-color="#EFD4D1"/>
<stop offset="1" stop-color="#F2EAC9"/>
</linearGradient>
<linearGradient id="paint5_linear_27_427" x1="126.412" y1="101.183" x2="-60.4294" y2="73.9164" gradientUnits="userSpaceOnUse">
<stop stop-opacity="0"/>
<stop offset="0.98"/>
</linearGradient>
<linearGradient id="paint6_linear_27_427" x1="147.876" y1="87.3829" x2="139.348" y2="150.168" gradientUnits="userSpaceOnUse">
<stop stop-opacity="0"/>
<stop offset="0.98"/>
</linearGradient>
<linearGradient id="paint7_linear_27_427" x1="177.054" y1="73.8143" x2="197.015" y2="73.8143" gradientUnits="userSpaceOnUse">
<stop stop-color="#ECC4D7"/>
<stop offset="0.42" stop-color="#EFD4D1"/>
<stop offset="1" stop-color="#F2EAC9"/>
</linearGradient>
<linearGradient id="paint8_linear_27_427" x1="119.684" y1="227.048" x2="136.011" y2="227.048" gradientUnits="userSpaceOnUse">
<stop stop-color="#ECC4D7"/>
<stop offset="0.42" stop-color="#EFD4D1"/>
<stop offset="1" stop-color="#F2EAC9"/>
</linearGradient>
<linearGradient id="paint9_linear_27_427" x1="60.514" y1="213.013" x2="70.0078" y2="213.013" gradientUnits="userSpaceOnUse">
<stop stop-color="#ECC4D7"/>
<stop offset="0.42" stop-color="#EFD4D1"/>
<stop offset="1" stop-color="#F2EAC9"/>
</linearGradient>
<linearGradient id="paint10_linear_27_427" x1="252.966" y1="-36.3188" x2="225.25" y2="486.866" gradientUnits="userSpaceOnUse">
<stop stop-opacity="0"/>
<stop offset="0.98"/>
</linearGradient>
<linearGradient id="paint11_linear_27_427" x1="254.721" y1="-36.2264" x2="227.004" y2="486.958" gradientUnits="userSpaceOnUse">
<stop stop-opacity="0"/>
<stop offset="0.98"/>
</linearGradient>
<linearGradient id="paint12_linear_27_427" x1="258.062" y1="-36.0456" x2="230.345" y2="487.135" gradientUnits="userSpaceOnUse">
<stop stop-opacity="0"/>
<stop offset="0.98"/>
</linearGradient>
<linearGradient id="paint13_linear_27_427" x1="259.682" y1="-35.9617" x2="231.965" y2="487.223" gradientUnits="userSpaceOnUse">
<stop stop-opacity="0"/>
<stop offset="0.98"/>
</linearGradient>
<linearGradient id="paint14_linear_27_427" x1="261.264" y1="-35.8777" x2="233.543" y2="487.307" gradientUnits="userSpaceOnUse">
<stop stop-opacity="0"/>
<stop offset="0.98"/>
</linearGradient>
<clipPath id="clip0_27_427">
<rect width="326" height="246" fill="white"/>
</clipPath>
</defs>
</svg>
