<svg width="583" height="422" viewBox="0 0 583 422" fill="none" xmlns="http://www.w3.org/2000/svg">
<path opacity="0.24" d="M337.307 400.429C287.869 394.996 237.443 393.858 189.522 381.804C164.929 375.619 141.355 366.645 119.392 355.109C105.966 348.062 92.9625 339.868 83.7216 328.776C58.7851 298.769 67.8262 256.098 87.131 223.04C106.436 189.981 134.735 160.844 148.161 125.612C160.682 92.74 161.329 53.3387 190.839 30.4201C202.443 21.3975 217.198 16.224 231.847 11.7955C257.124 4.14906 283.766 -1.8315 310.36 0.558657C343.691 3.55928 373.494 19.2764 404.709 29.9855C435.383 40.4774 467.95 46.2717 498.717 56.6187C529.485 66.9657 559.501 82.7862 576.313 107.681C595.512 136.042 594.701 171.274 590.915 204.115C587.129 236.956 581.028 270.76 591.409 302.484C599.968 328.61 619.273 351.611 624.963 378.338C631.712 410.041 615.181 436.281 582.133 450.187C542.794 466.742 499.658 460.12 467.773 439.085C430.398 414.387 382.923 405.426 337.307 400.429Z" fill="#88E081"/>
<path d="M262.556 130.465C261.031 131.634 259.836 133.098 259.065 134.743C258.293 136.388 257.967 138.168 258.112 139.943C258.439 143.497 259.725 146.931 261.863 149.959C264.836 154.529 268.728 158.585 273.349 161.931C274.196 154.29 274.042 146.59 272.891 138.981C272.585 136.912 274.137 131.5 273.102 130.134C271.01 127.403 264.908 128.841 262.556 130.465Z" fill="#F5E0CD"/>
<path d="M268.282 277.537C269.215 278.733 269.825 280.1 270.068 281.534C270.31 282.968 270.178 284.432 269.681 285.815C267.329 291.34 260.064 291.154 255.02 293.782C245.226 298.759 246.99 312.562 255.02 319.557C263.05 326.551 274.654 329.014 285.141 332.656C296.144 336.489 306.628 341.386 316.403 347.256C319.083 348.808 321.67 350.36 324.174 352.046C348.452 367.66 368.216 385.974 400.089 397.914C419.405 405.157 438.416 411.366 452.031 425.468C452.76 426.224 453.477 426.958 454.17 427.693C492.263 467.312 560.488 472.578 604.4 437.937C614.347 430.083 618.991 422.778 610.749 416.073C582.344 393 550.601 377.314 529.873 347.214C519.421 332.066 512.485 315.221 506.359 298.335C500.869 283.073 496.013 267.656 491.264 252.208C486.259 235.795 479.973 219.705 472.452 204.053C458.791 175.785 457.451 182.821 434.83 155.05C431.668 151.19 425.131 161.154 423.367 165.635C417.924 179.893 421.016 202.967 431.409 210.003C435.794 212.931 442.731 230.593 441.332 238.364C441.171 239.39 440.892 240.399 440.497 241.375C439.615 243.154 438.146 243.113 434.619 241.84C426.894 239.057 420.264 232.87 414.032 227.582C411.352 225.295 408.589 223.102 405.685 221.053C370.567 195.465 323.234 185.273 277.534 181.828C267.353 181.052 256.654 180.669 247.954 186.401C244.331 188.691 241.877 192.144 241.123 196.013C238.372 212.569 269.234 217.318 266.601 231.949C262.212 231.823 257.882 232.864 254.176 234.937C250.469 237.009 247.559 240.017 245.824 243.567C244.088 247.117 243.609 251.045 244.449 254.838C245.288 258.631 247.407 262.114 250.529 264.831C255.902 269.581 263.932 271.557 268.282 277.537Z" fill="#F5E0CD"/>
<path d="M286.811 264.718C290.279 291.878 302.177 317.57 313.946 342.848C314.613 344.382 315.419 345.866 316.356 347.287C316.996 348.257 317.81 349.13 318.766 349.873C320.318 350.988 322.16 351.746 324.127 352.077C327.049 352.556 330.03 352.689 332.992 352.47L398.455 349.801C410.353 349.294 424.143 347.949 430.692 339.175C434.466 334.146 431.962 327.793 432.185 321.781C432.714 307.947 429.199 286.291 428.893 272.457C428.717 263.838 433.42 251.422 440.438 241.416C439.557 243.196 438.087 243.154 434.56 241.882C426.836 239.098 420.205 232.911 413.974 227.624C411.293 225.337 408.53 223.143 405.626 221.095C392.329 217.732 378.715 215.414 371.202 212.817C353.473 206.754 338.412 206.174 319.577 208.533C306.445 210.189 295.687 219.47 290.644 230.262C285.6 241.054 285.353 253.119 286.811 264.718Z" fill="url(#paint0_linear_27_21)"/>
<path d="M288.245 94.5095H402.64C409.626 94.5095 415.29 99.4941 415.29 105.643V333.132C415.29 339.281 409.626 344.265 402.64 344.265H288.245C281.258 344.265 275.595 339.281 275.595 333.132V105.643C275.595 99.4941 281.258 94.5095 288.245 94.5095Z" fill="#50B848"/>
<path d="M288.245 94.5095H402.64C409.626 94.5095 415.29 99.4941 415.29 105.643V333.132C415.29 339.281 409.626 344.265 402.64 344.265H288.245C281.258 344.265 275.595 339.281 275.595 333.132V105.643C275.595 99.4941 281.258 94.5095 288.245 94.5095Z" fill="url(#paint1_linear_27_21)"/>
<path d="M272.891 256.626C272.891 279.928 272.891 303.232 272.891 326.541C272.891 340.23 281.744 348.052 297.192 348.052C330.111 348.052 363.007 348.052 395.88 348.052C411.258 348.052 419.84 340.354 419.84 326.748C419.84 291.568 419.84 256.371 419.84 221.157C419.84 212.031 419.687 202.905 419.911 193.789C420.064 187.156 420.816 180.545 421.087 173.923C421.157 172.453 420.428 170.974 420.158 169.473C419.97 168.439 419.488 167.176 419.911 166.369C422.909 160.234 420.746 153.849 421.157 147.61C421.369 144.506 419.981 141.402 419.876 138.298C419.876 135.773 421.263 133.238 421.181 130.724C420.91 123.388 420.499 116.031 419.629 108.726C418.453 98.8344 409.2 92.0261 397.291 91.9951C372.989 91.9433 348.699 91.9951 324.398 91.9951C315.11 91.9951 305.833 91.9227 296.545 91.9951C281.602 92.0572 272.891 99.7346 272.855 112.782C272.855 116.507 272.926 120.232 272.855 123.957C272.373 141.361 270.774 158.806 271.68 176.137C272.303 187.519 272.632 198.9 272.773 210.354C273.032 225.658 272.879 241.147 272.891 256.626ZM414.726 219.067C414.726 254.75 414.726 290.43 414.726 326.106C414.726 336.702 407.672 343.003 395.715 343.013C362.945 343.055 330.182 343.055 297.427 343.013C284.342 343.013 277.44 336.877 277.44 325.423C277.44 281.111 277.44 236.794 277.44 192.475C277.44 165.814 277.44 139.143 277.44 112.461C277.44 101.959 284.683 95.6269 296.51 95.5855C299.379 95.5855 302.248 95.6579 305.105 95.5855C308.185 95.4717 309.807 96.6202 310.713 99.269C312.229 103.873 314.11 105.156 319.495 105.177C337.099 105.26 354.707 105.281 372.319 105.239C378.327 105.239 379.902 104.132 381.666 99.031C381.885 97.9604 382.567 97.0063 383.569 96.3694C384.571 95.7326 385.815 95.4627 387.038 95.6165C390.319 95.7097 393.599 95.6165 396.867 95.6165C407.202 95.7097 414.667 102.228 414.679 111.344C414.75 147.214 414.765 183.121 414.726 219.067ZM274.972 302.256L275.113 302.174V328.041H274.972V302.256Z" fill="#50B848"/>
<path d="M283.966 204.519C287.363 208.968 290.314 214.1 289.762 219.439C289.209 224.778 283.883 230.003 277.828 229.258C274.83 228.886 272.291 227.189 269.963 225.492C266.945 223.292 264.026 220.977 261.204 218.549C259.218 216.946 257.475 215.124 256.019 213.127C254.504 210.844 253.658 208.264 253.56 205.621C253.461 202.978 254.113 200.355 255.455 197.99C257.701 194.141 264.061 188.729 269.446 190.26C274.83 191.792 280.897 200.514 283.966 204.519Z" fill="#F5E0CD"/>
<path d="M283.966 256.378C287.363 260.827 290.314 265.959 289.762 271.298C289.209 276.637 283.883 281.862 277.828 281.117C274.83 280.745 272.291 279.048 269.963 277.351C266.945 275.151 264.026 272.836 261.204 270.408C259.218 268.805 257.475 266.983 256.019 264.986C254.504 262.703 253.658 260.123 253.56 257.48C253.461 254.838 254.113 252.215 255.455 249.849C257.701 246 264.061 240.588 269.446 242.12C274.83 243.651 280.897 252.373 283.966 256.378Z" fill="#F5E0CD"/>
<path d="M283.966 304.605C287.363 309.054 290.314 314.186 289.762 319.525C289.209 324.864 283.883 330.1 277.828 329.345C274.83 328.972 272.291 327.275 269.963 325.589C266.945 323.388 264.026 321.074 261.204 318.646C259.218 317.043 257.475 315.22 256.019 313.224C254.504 310.941 253.658 308.361 253.56 305.718C253.461 303.075 254.113 300.452 255.455 298.086C257.701 294.227 264.061 288.826 269.446 290.347C274.83 291.868 280.897 300.601 283.966 304.605Z" fill="#F5E0CD"/>
<path d="M363.729 200.587L362.836 201.29C361.599 202.197 360.597 203.326 359.896 204.601C359.149 206.025 358.856 207.601 359.051 209.16C359.246 210.719 359.92 212.201 361.001 213.448C361.826 214.563 363.003 215.44 364.387 215.973L364.999 216.18C364.905 216.418 364.822 216.656 364.728 216.883C363.66 219.486 362.067 221.897 360.026 224.002C359.465 224.549 358.847 225.048 358.18 225.492C357.524 225.962 356.746 226.282 355.915 226.425C355.085 226.568 354.227 226.528 353.418 226.309C352.372 226.04 351.337 225.74 350.291 225.461C349.431 225.211 348.538 225.061 347.634 225.016C346.306 225.012 344.991 225.255 343.778 225.73C342.821 226.098 341.819 226.365 340.791 226.527C339.82 226.642 338.831 226.505 337.946 226.133C336.76 225.613 335.714 224.876 334.878 223.971C333.116 222.095 331.675 220.004 330.598 217.763C329.458 215.592 328.731 213.271 328.447 210.892C328.061 208.186 328.444 205.438 329.563 202.894C330.329 201.2 331.586 199.713 333.208 198.579C334.878 197.425 336.967 196.845 339.087 196.945C340.685 197.018 342.266 197.275 343.789 197.71C344.424 197.865 345.071 197.99 345.717 198.145C346.714 198.409 347.777 198.409 348.774 198.145L352.125 197.255C353.485 196.879 354.912 196.731 356.334 196.82C358.532 196.94 360.612 197.735 362.212 199.066C362.73 199.49 363.2 199.966 363.694 200.421C363.709 200.476 363.721 200.531 363.729 200.587Z" fill="white"/>
<path d="M346.258 197.431C346.235 195.189 347.063 193.004 348.61 191.223C350.243 189.577 352.474 188.48 354.923 188.119C355.115 188.604 355.163 189.123 355.064 189.629C354.916 190.935 354.46 192.2 353.725 193.342C352.99 194.484 351.993 195.478 350.796 196.262C349.769 196.931 348.545 197.326 347.269 197.4L346.258 197.431Z" fill="white"/>
<defs>
<linearGradient id="paint0_linear_27_21" x1="451.349" y1="345.548" x2="108.194" y2="37.317" gradientUnits="userSpaceOnUse">
<stop stop-color="#010101" stop-opacity="0"/>
<stop offset="0.95" stop-color="#010101"/>
</linearGradient>
<linearGradient id="paint1_linear_27_21" x1="341.633" y1="-17.1345" x2="349.292" y2="596.511" gradientUnits="userSpaceOnUse">
<stop stop-color="#010101" stop-opacity="0"/>
<stop offset="0.95" stop-color="#010101"/>
</linearGradient>
</defs>
</svg>
