<svg width="228" height="48" viewBox="0 0 228 48" fill="none" xmlns="http://www.w3.org/2000/svg">
<path d="M132.878 27.8315H125.325V31.3661H132.878V27.8315Z" fill="#3AAA35"/>
<path d="M98.3625 22.0339H102.413V37.0113H106.412V22.0339H110.475V18.5247H98.3625V22.0339ZM92.7967 25.4286H85.6517V18.5247H81.6525V37.0113H85.6517V29.0013H92.7967V37.0113H96.7959V18.5247H92.7967V25.4286ZM64.7132 18.5247H60.7013V33.5149H54.0529V18.5247H50.0537V37.0113H63.1466V41.0672H66.8784V33.5149H64.7132V18.5247ZM187.606 37.0113H198.1V33.5149H191.605V29.0903H197.833V25.5685H191.605V22.0339H198.1V18.5247H187.606V37.0113ZM182.129 27.056C182.662 26.6627 183.091 26.1458 183.38 25.55C183.668 24.9542 183.807 24.2973 183.785 23.6359C183.805 22.8921 183.656 22.1535 183.349 21.4754C183.043 20.7972 182.586 20.1971 182.014 19.7199C180.665 18.8387 179.063 18.4233 177.455 18.5375H172.742V37.0113H179.047C180.76 37.1185 182.452 36.5784 183.785 35.4983C184.307 35.0114 184.722 34.4201 185 33.763C185.279 33.1058 185.416 32.3975 185.402 31.684C185.426 31.0305 185.317 30.379 185.08 29.7692C184.844 29.1593 184.485 28.6039 184.027 28.1367C183.494 27.6269 182.842 27.2596 182.129 27.0687V27.056ZM176.742 21.8686H177.519C178.135 21.843 178.744 22.0072 179.263 22.339C179.502 22.518 179.692 22.7536 179.817 23.0244C179.941 23.2953 179.996 23.5928 179.977 23.8902C179.994 24.3139 179.888 24.7335 179.671 25.098C179.398 25.4888 178.99 25.765 178.525 25.8736C178.188 25.9627 177.841 26.0055 177.493 26.0007H176.742V21.8686ZM181.072 32.3452C180.909 32.7065 180.637 33.0085 180.295 33.2097C179.587 33.5537 178.802 33.7113 178.015 33.6674H176.742V29.2429H177.799C178.582 29.188 179.368 29.3007 180.104 29.5735C180.524 29.7434 180.868 30.0596 181.072 30.4635C181.216 30.7563 181.29 31.0783 181.289 31.4043C181.295 31.7499 181.225 32.0927 181.085 32.4087L181.072 32.3452ZM68.5468 37.0113H79.0415V33.5149H72.597V29.0903H78.825V25.5685H72.597V22.0339H79.0925V18.5247H68.5468V37.0113ZM215.243 18.5247V22.0339H219.306V37.0113H223.306V22.0339H227.368V18.5247H215.243ZM122.447 19.9615C121.814 19.3948 121.054 18.9891 120.231 18.779C119.341 18.577 118.43 18.4872 117.518 18.512H112.079V37.0113H116.091V30.349H118.066C118.927 30.4029 119.79 30.2832 120.604 29.997C121.418 29.7109 122.166 29.2642 122.803 28.6835C123.843 27.5364 124.399 26.0337 124.357 24.4877C124.376 23.6404 124.214 22.7988 123.882 22.0185C123.551 21.2382 123.057 20.5371 122.434 19.9615H122.447ZM119.377 26.3186C118.739 26.73 117.981 26.9138 117.225 26.8399H116.04V22.0339H117.008C117.825 21.9648 118.642 22.1467 119.352 22.5552C119.64 22.7701 119.873 23.0508 120.03 23.3737C120.187 23.6966 120.265 24.0525 120.256 24.4115C120.261 24.7746 120.185 25.1342 120.033 25.4641C119.881 25.7941 119.657 26.086 119.377 26.3186ZM209.423 18.1179C206.926 18.0047 204.486 18.8823 202.635 20.559C201.664 21.4906 200.899 22.614 200.388 23.8574C199.877 25.1009 199.631 26.4372 199.667 27.7807C199.642 29.0607 199.878 30.3323 200.36 31.5185C200.842 32.7048 201.561 33.781 202.472 34.6821C203.382 35.5831 204.467 36.2902 205.66 36.7605C206.852 37.2308 208.128 37.4545 209.41 37.4182C211 37.4404 212.571 37.0691 213.983 36.3374L214.11 36.2739V31.3662L213.677 31.8747C213.186 32.4646 212.571 32.9391 211.875 33.2643C211.179 33.5896 210.42 33.7576 209.652 33.7564C208.166 33.7643 206.729 33.2258 205.615 32.2435C205.012 31.6833 204.537 31.0009 204.221 30.2421C203.904 29.4833 203.754 28.6658 203.781 27.8443C203.77 26.2936 204.327 24.7924 205.347 23.6232C205.87 23.0395 206.513 22.575 207.231 22.2612C207.95 21.9475 208.728 21.7919 209.512 21.805C210.305 21.8136 211.087 21.9916 211.806 22.3271C212.524 22.6627 213.162 23.148 213.677 23.7503L214.11 24.2462V19.3257L213.983 19.2622C212.588 18.5052 211.023 18.1158 209.436 18.1306L209.423 18.1179ZM138.928 30.1583V18.5247H134.928V37.0113H137.998L147.308 25.3269V37.0113H151.307V18.5247H148.187L138.928 30.1583ZM165.572 25.4286H158.427V18.5247H154.428V37.0113H158.427V29.0013H165.572V37.0113H169.571V18.5247H165.572V25.4286Z" fill="#3AAA35"/>
<path d="M58.7653 6.92928C57.7176 6.05787 56.3836 5.60491 55.0209 5.65785H53.3269V2.92428H58.829V0H50.0537V14.8121H55.0336C55.7753 14.8248 56.5144 14.7218 57.2242 14.507C58.0839 14.2425 58.8317 13.7016 59.3512 12.9686C59.8942 12.1793 60.183 11.2434 60.1791 10.2858C60.1955 9.65708 60.0767 9.03211 59.8306 8.45309C59.5845 7.87406 59.2169 7.35444 58.7526 6.92928H58.7653ZM56.4091 11.3666C55.8372 11.7983 55.1229 11.9982 54.4095 11.926H53.3269V8.60756H54.4605C55.1559 8.53848 55.8507 8.74384 56.3964 9.17971C56.5438 9.32819 56.6594 9.50511 56.736 9.69966C56.8127 9.89422 56.8488 10.1023 56.8422 10.3113C56.8494 10.5086 56.8158 10.7052 56.7435 10.889C56.6711 11.0727 56.5617 11.2396 56.4219 11.3793L56.4091 11.3666ZM97.0125 6.89114L103.291 0H99.1139L94.2487 5.67057V0H90.9245V14.8121H94.2487V8.58214L99.2413 14.863H103.572L97.0125 6.89114ZM66.5345 0L60.2555 14.8121H63.8089L65.0825 11.8116H70.5337L71.8073 14.8121H75.3353L69.2091 0H66.5345ZM66.1524 9.01442L67.8463 4.78057L69.502 9.01442H66.1524ZM85.2569 5.518H79.6274V0H76.3542V14.8121H79.6401V8.45499H85.2059V14.8121H88.4791V0H85.1932L85.2569 5.518Z" fill="#3AAA35"/>
<path d="M20.1997 0V10.7563L28.975 0H20.1997Z" fill="#3AAA35"/>
<path d="M35.2285 1.48755L20.1997 19.9233V24.5131C20.1997 24.386 20.1997 24.2588 20.2634 24.1317L20.4544 23.318C20.7935 22.1473 21.3367 21.0454 22.0592 20.0631L22.5687 19.4528C23.1308 18.8734 23.7692 18.373 24.4664 17.9653C24.8381 17.7734 25.2209 17.6035 25.6126 17.4567C26.4379 17.2082 27.2984 17.0965 28.1599 17.1261L29.026 17.2405C29.7085 17.3959 30.3679 17.6396 30.9874 17.9653C31.336 18.1695 31.672 18.3945 31.9935 18.6391C32.9186 19.4126 33.6843 20.3583 34.2478 21.4235L34.5917 22.161C34.8577 22.9397 35.0579 23.7392 35.1903 24.5513L35.2285 1.48755Z" fill="#3AAA35"/>
<path d="M27.7526 18.7917C24.4666 18.7917 21.792 22.1483 21.792 26.2677C21.792 30.3872 24.4666 33.7564 27.7526 33.7564C31.0385 33.7564 33.7259 30.3999 33.7259 26.2677C33.7259 22.1356 31.0513 18.7917 27.7526 18.7917ZM27.7526 31.3407C25.7785 31.3407 24.1609 29.0649 24.1609 26.255C24.1609 23.4452 25.7657 21.1693 27.7526 21.1693C29.7394 21.1693 31.357 23.4452 31.357 26.255C31.357 29.0649 29.7394 31.3407 27.7526 31.3407Z" fill="#3AAA35"/>
<path d="M20.4671 29.2427L20.2761 28.429L20.2124 28.0476V37.0366H35.2412V28.1366C35.0544 29.1887 34.7379 30.2136 34.2987 31.188L33.8912 31.8873C33.3112 32.7873 32.5735 33.5755 31.7133 34.214L31.0255 34.6463C30.4059 34.9716 29.7466 35.2152 29.0641 35.371C28.6432 35.4438 28.2175 35.4863 27.7905 35.4982C27.2109 35.4825 26.6346 35.4058 26.0711 35.2693C25.6678 35.1494 25.2723 35.005 24.8866 34.837C24.0214 34.3805 23.2415 33.7783 22.5814 33.057L22.0592 32.4467C21.3454 31.4796 20.8066 30.3953 20.4671 29.2427Z" fill="#3AAA35"/>
<path d="M0 35.5999L15.0288 17.1642V12.5108C15.0288 12.6379 15.0288 12.7651 15.0288 12.8922L14.8251 13.7059C14.4843 14.876 13.9412 15.9775 13.2203 16.9608L12.6981 17.5711C12.1285 18.1615 11.4764 18.6668 10.7622 19.0713C10.3916 19.2656 10.0087 19.4354 9.6159 19.5799C8.79107 19.8304 7.93022 19.9422 7.06865 19.9105L6.20258 19.7961C5.50674 19.6443 4.83428 19.4006 4.20298 19.0713C3.84988 18.8677 3.50961 18.6427 3.18407 18.3975C2.26378 17.6225 1.50257 16.677 0.942486 15.6131L0.598606 14.8756C0.333371 14.0967 0.133152 13.2972 0 12.4854L0 35.5999Z" fill="#3AAA35"/>
<path d="M7.47621 18.2323C10.7622 18.2323 13.4368 14.8757 13.4368 10.7563C13.4368 6.63686 10.7749 3.26758 7.47621 3.26758C4.17751 3.26758 1.51562 6.62415 1.51562 10.7563C1.51562 14.8884 4.19025 18.2323 7.47621 18.2323ZM7.47621 5.68329C9.46307 5.68329 11.0678 7.95915 11.0678 10.769C11.0678 13.5789 9.45034 15.8547 7.47621 15.8547C5.50209 15.8547 3.88458 13.5789 3.88458 10.769C3.88458 7.95915 5.50209 5.68329 7.47621 5.68329Z" fill="#3AAA35"/>
<path d="M14.7614 7.79386L14.9652 8.60757C14.9652 8.73471 14.9652 8.86186 14.9652 8.97628V0H0V8.9C0.18615 7.84777 0.502745 6.82275 0.942486 5.84857L1.35005 5.14928C1.93393 4.27093 2.6666 3.5008 3.51522 2.87343L4.20298 2.44114C4.82283 2.11637 5.48207 1.87278 6.16437 1.71643C6.58545 1.64465 7.01102 1.60217 7.438 1.58929C8.01764 1.6045 8.59402 1.68121 9.1574 1.81814C9.55998 1.94011 9.95542 2.08443 10.3419 2.25043C11.1991 2.67695 11.9784 3.24428 12.6471 3.92871L13.1693 4.539C13.8882 5.52348 14.4312 6.62466 14.7741 7.79386H14.7614Z" fill="#3AAA35"/>
<path d="M15.016 26.2678L6.25342 37.0114H15.016V26.2678Z" fill="#3AAA35"/>
<path d="M30.9876 0L0.866211 37.0113H4.19038L34.3754 0H30.9876Z" fill="#3AAA35"/>
<path d="M18.6971 34.4685H14.8125V37.0114H18.6971V34.4685Z" fill="#3AAA35"/>
<path d="M36.7315 34.4683V37.0112C37.5786 37.0732 38.3673 37.4653 38.9273 38.1028C39.4872 38.7403 39.7736 39.5721 39.7245 40.4186C39.7261 41.2848 39.3959 42.1188 38.8016 42.7499C38.2073 43.381 37.3938 43.7614 36.5277 43.8133C34.8506 43.716 33.1914 43.4172 31.586 42.9233L16.2388 39.109C7.79462 37.1002 0 39.4142 0 44.9195H2.54726C2.54726 42.8852 6.50825 41.5247 14.9779 43.648L30.5671 47.4242C33.458 48.3062 36.5645 48.1715 39.3679 47.0427C40.4634 46.4524 41.3782 45.5767 42.0151 44.5088C42.652 43.441 42.9872 42.2208 42.985 40.978C43.0104 40.1358 42.8679 39.2969 42.5656 38.5101C42.2634 37.7234 41.8074 37.0045 41.2244 36.3952C40.6413 35.7859 39.9427 35.2984 39.1692 34.9611C38.3957 34.6237 37.5627 34.4433 36.7188 34.4302L36.7315 34.4683Z" fill="#3AAA35"/>
</svg>
