<?xml version="1.0" encoding="utf-8"?>
<!-- Generator: Adobe Illustrator 26.0.1, SVG Export Plug-In . SVG Version: 6.00 Build 0)  -->
<svg version="1.1" xmlns="http://www.w3.org/2000/svg" xmlns:xlink="http://www.w3.org/1999/xlink" x="0px" y="0px"
	 viewBox="0 0 700 500" style="enable-background:new 0 0 700 500;" xml:space="preserve">
<style type="text/css">
	.st0{fill:#92E3A9;}
	.st1{opacity:0.7;fill:#FFFFFF;}
	.st2{fill:none;stroke:#263238;stroke-width:1.2008;stroke-linecap:round;stroke-linejoin:round;stroke-miterlimit:10;}
	.st3{fill:#263238;stroke:#263238;stroke-width:1.2008;stroke-linecap:round;stroke-linejoin:round;stroke-miterlimit:10;}
	.st4{fill:#FFFFFF;stroke:#263238;stroke-width:1.2008;stroke-linecap:round;stroke-linejoin:round;stroke-miterlimit:10;}
	.st5{fill:#263238;}
	.st6{fill:#263238;stroke:#FFFFFF;stroke-width:0.8306;stroke-linejoin:round;stroke-miterlimit:10;}
	.st7{fill:#D1D1D1;stroke:#263238;stroke-width:1.2008;stroke-linejoin:round;stroke-miterlimit:10;}
	.st8{fill:none;stroke:#263238;stroke-width:1.2008;stroke-linejoin:round;stroke-miterlimit:10;}
	.st9{fill:none;stroke:#263238;stroke-width:1.2008;stroke-linejoin:round;}
	.st10{fill:none;stroke:#263238;stroke-width:1.2008;stroke-linejoin:round;stroke-dasharray:2.3758,2.3758;}
	.st11{fill:#FFFFFF;stroke:#263238;stroke-width:1.2008;stroke-linejoin:round;stroke-miterlimit:10;}
	.st12{fill:none;stroke:#263238;stroke-width:0.6004;stroke-linejoin:round;stroke-miterlimit:10;}
	.st13{fill:#92E3A9;stroke:#263238;stroke-width:1.2008;stroke-linejoin:round;stroke-miterlimit:10;}
</style>
<g id="Background_Simple">
	<g>
		<path class="st0" d="M617.81,346.69c0,0,27.37-140.34-47.19-219.97c-65.82-70.29-170.03-97.63-254.98-39.5
			c-30.27,20.71-52.3,60.92-87.65,73.34c-39.64,13.93-90.61,18.91-127.43,78.63c-36.81,59.72-23.6,136.36,25.49,177.17
			c49.08,40.81,134.98,1,212.38-1.99C415.82,411.38,577.22,519.87,617.81,346.69z"/>
		<path class="st1" d="M617.81,346.69c0,0,27.37-140.34-47.19-219.97c-65.82-70.29-170.03-97.63-254.98-39.5
			c-30.27,20.71-52.3,60.92-87.65,73.34c-39.64,13.93-90.61,18.91-127.43,78.63c-36.81,59.72-23.6,136.36,25.49,177.17
			c49.08,40.81,134.98,1,212.38-1.99C415.82,411.38,577.22,519.87,617.81,346.69z"/>
	</g>
</g>
<g id="Plants">
	<g>
		<g>
			<g>
				<g>
					<path class="st0" d="M165.38,95.51c0,0,0-8.53-11.94-20.47c-11.94-11.94-19.62-18.77-19.62-18.77s-5.97,19.62,5.12,31.56
						c11.09,11.94,26.45,23.03,26.45,23.03V95.51z"/>
					<path class="st0" d="M148.05,148.79c0,0,0-8.53-11.94-20.47c-11.94-11.94-19.62-18.77-19.62-18.77s-5.97,19.62,5.12,31.56
						c11.09,11.94,26.45,23.03,26.45,23.03V148.79z"/>
					<path class="st0" d="M164.63,110.04c0,0,0.9-8.48,14.04-19.1c13.14-10.61,21.49-16.59,21.49-16.59s3.86,20.14-8.42,30.85
						c-12.29,10.7-28.73,20.11-28.73,20.11L164.63,110.04z"/>
					<path class="st0" d="M143.69,172.96c0,0,1.79-8.34,15.97-17.52c14.18-9.18,23.12-14.24,23.12-14.24s1.73,20.44-11.62,29.79
						c-13.35,9.35-30.68,16.98-30.68,16.98L143.69,172.96z"/>
					<path class="st0" d="M147.63,241.56c0,0,0-8.53,11.94-20.47c11.94-11.94,19.62-18.77,19.62-18.77s5.97,19.62-5.12,31.56
						c-11.09,11.94-26.44,23.03-26.44,23.03V241.56z"/>
					<path class="st0" d="M147.43,258.3c0,0,1.21-8.44-8.91-21.96c-10.12-13.52-16.75-21.37-16.75-21.37s-8.7,18.57,0.58,31.97
						c9.28,13.4,22.9,26.56,22.9,26.56L147.43,258.3z"/>
					<path class="st0" d="M135.65,307.92c0,0,0-8.53,11.94-20.47c11.94-11.94,19.62-18.77,19.62-18.77s5.97,19.62-5.12,31.56
						c-11.09,11.94-26.45,23.03-26.45,23.03V307.92z"/>
					<path class="st0" d="M143.63,352.92c0,0-2.16-8.25,6.37-22.83c8.53-14.58,14.23-23.13,14.23-23.13s10.75,17.47,3.04,31.83
						c-7.7,14.36-19.75,28.98-19.75,28.98L143.63,352.92z"/>
				</g>
				<path class="st2" d="M166.46,93.32c-0.7,9.12-1.74,18.55-3.27,26.49c-4.72,24.39-16.52,40.13-21.24,62.16
					c-4.72,22.03,8.83,50.41,5.2,78.71c-3.63,28.3-14.64,44.03-11.5,62.92c3.15,18.88,19.67,70.03,19.67,70.03"/>
				<line class="st2" x1="164.51" y1="115.71" x2="177.38" y2="105.83"/>
				<line class="st2" x1="165.11" y1="104.34" x2="159.72" y2="94.76"/>
				<path class="st2" d="M142.66,180.96c0,0,10.78-8.08,21.85-16.16"/>
				<path class="st2" d="M148.05,164.14c0,0-8.98-17.6-19.15-29.28"/>
				<path class="st2" d="M148.05,253.69c0,0,8.38-16.46,23.05-30.83"/>
				<path class="st2" d="M145.95,265.67c0,0-5.39-12.87-11.67-22.15c-6.29-9.28-7.18-10.48-7.18-10.48"/>
				<path class="st2" d="M135.65,323.6c0,0,4.32-10.94,9.7-19.62c5.39-8.68,12.57-16.46,12.57-16.46"/>
				<path class="st2" d="M147.51,367.77c0,0-1.26-10.22,3.23-18.9c4.49-8.68,9.58-20.05,11.67-24.54"/>
			</g>
			<g>
				<g>
					<path class="st0" d="M87.17,209.48c0,0-0.93-5.35,5.27-14.14c6.19-8.79,10.27-13.9,10.27-13.9s5.87,11.66,0.22,20.35
						c-5.66,8.69-14.08,17.31-14.08,17.31L87.17,209.48z"/>
					<path class="st0" d="M103.83,241c0,0-0.93-5.35,5.27-14.14c6.19-8.79,10.27-13.9,10.27-13.9s5.87,11.66,0.22,20.35
						c-5.66,8.69-14.08,17.31-14.08,17.31L103.83,241z"/>
					<path class="st0" d="M89.22,218.5c0,0-1.49-5.22-10.88-10.45c-9.39-5.23-15.28-8.07-15.28-8.07s-0.24,13.05,8.63,18.43
						c8.87,5.38,20.2,9.49,20.2,9.49L89.22,218.5z"/>
					<path class="st0" d="M109.18,255.69c0,0-2.03-5.04-11.91-9.25c-9.89-4.21-16.04-6.42-16.04-6.42s1.13,13,10.52,17.42
						c9.38,4.42,21.08,7.32,21.08,7.32L109.18,255.69z"/>
					<path class="st0" d="M114.16,299.13c0,0-0.93-5.35-9.71-11.54c-8.79-6.19-14.34-9.64-14.34-9.64s-1.62,12.95,6.64,19.24
						c8.25,6.29,19.08,11.57,19.08,11.57L114.16,299.13z"/>
					<path class="st0" d="M116.1,309.61c0,0-1.68-5.16,3.2-14.74c4.88-9.58,8.19-15.22,8.19-15.22s7.47,10.7,3.11,20.11
						c-4.36,9.41-11.48,19.14-11.48,19.14L116.1,309.61z"/>
					<path class="st0" d="M131.09,352.76c0,0,0.62-5.39,9.04-12.08c8.42-6.68,13.77-10.44,13.77-10.44s2.35,12.84-5.53,19.58
						c-7.88,6.75-18.39,12.64-18.39,12.64L131.09,352.76z"/>
					<path class="st0" d="M128.88,339.45c0,0-0.93-5.35-9.71-11.54c-8.79-6.19-14.34-9.64-14.34-9.64s-1.61,12.95,6.64,19.24
						c8.25,6.29,19.08,11.57,19.08,11.57L128.88,339.45z"/>
					<path class="st0" d="M128.76,368.53c0,0,0.46-5.41-6.47-13.63c-6.93-8.22-11.43-12.96-11.43-12.96s-4.84,12.12,1.55,20.29
						c6.39,8.17,15.53,16.03,15.53,16.03L128.76,368.53z"/>
				</g>
				<path class="st2" d="M86.26,208.22c1.43,5.64,3.1,11.45,4.93,16.25c5.61,14.78,14.72,23.37,20.07,36.67
					c5.35,13.3-0.07,32.57,5.28,49.92c5.35,17.35,13.96,26.02,14.04,38.21c0.08,12.18-4.73,46.05-4.73,46.05"/>
				<line class="st2" x1="89.91" y1="222.05" x2="80.77" y2="217.25"/>
				<line class="st2" x1="88.3" y1="214.98" x2="90.64" y2="208.39"/>
				<path class="st2" d="M110.7,260.59c0,0-7.63-3.9-15.46-7.76"/>
				<path class="st2" d="M105.49,250.63c0,0,3.72-12.01,8.83-20.44"/>
				<path class="st2" d="M115.21,306.79c0,0-7.04-9.41-17.8-16.83"/>
				<path class="st2" d="M117.83,314.07c0,0,1.98-8.66,4.92-15.16c2.93-6.5,3.37-7.35,3.37-7.35"/>
				<path class="st2" d="M130.16,358.52c0,0,6.06-7.43,9.83-10.21c3.77-2.78,6.38-5.55,6.38-5.55"/>
				<path class="st2" d="M130.58,349.28c0,0-3.89-6.39-8.22-11.25c-4.32-4.86-9.67-8.96-9.67-8.96"/>
				<path class="st2" d="M127.93,378.26c0,0-0.32-6.54-4.08-11.5c-3.76-4.96-8.18-11.54-9.98-14.12"/>
			</g>
		</g>
		<g>
			<path class="st3" d="M163.06,476.54h-49.85c-2.17,0-3.93-1.76-3.93-3.93l-12.36-82.55h82.43l-12.36,82.55
				C166.99,474.78,165.23,476.54,163.06,476.54z"/>
		</g>
	</g>
</g>
<g id="Graphics">
	<g>
		
			<rect x="429.03" y="79.59" transform="matrix(0.7071 -0.7071 0.7071 0.7071 65.9005 335.0839)" class="st2" width="16.81" height="16.81"/>
		
			<rect x="311.09" y="44.38" transform="matrix(0.7071 -0.7071 0.7071 0.7071 57.841 237.5584)" class="st2" width="9.17" height="9.17"/>
		
			<rect x="582.07" y="103.84" transform="matrix(0.7071 -0.7071 0.7071 0.7071 95.1577 446.5794)" class="st2" width="9.17" height="9.17"/>
		<path class="st2" d="M245.31,122.82c0-2.65-2.15-4.8-4.8-4.8s-4.8,2.15-4.8,4.8c0,2.65,2.15,4.8,4.8,4.8
			S245.31,125.47,245.31,122.82z"/>
		<path class="st2" d="M618.75,383.38c0-2.65-2.15-4.8-4.8-4.8s-4.8,2.15-4.8,4.8c0,2.65,2.15,4.8,4.8,4.8
			S618.75,386.03,618.75,383.38z"/>
		<path class="st2" d="M502.27,140.83c0-2.65-2.15-4.8-4.8-4.8c-2.65,0-4.8,2.15-4.8,4.8c0,2.65,2.15,4.8,4.8,4.8
			C500.12,145.63,502.27,143.48,502.27,140.83z"/>
		<path class="st2" d="M126.44,176.85c0-2.65-2.15-4.8-4.8-4.8c-2.65,0-4.8,2.15-4.8,4.8s2.15,4.8,4.8,4.8
			C124.28,181.65,126.44,179.5,126.44,176.85z"/>
	</g>
</g>
<g id="Device">
	<g>
		<path class="st4" d="M603.34,454.91H150.61V173.78c0-7.03,5.7-12.74,12.74-12.74h427.27c7.03,0,12.74,5.7,12.74,12.74V454.91z"/>
		<rect x="222.44" y="440.76" class="st3" width="311.15" height="15.33"/>
		<rect x="222.44" y="448.15" class="st4" width="311.15" height="7.95"/>
		<path class="st3" d="M113.99,465.18c0,0,5.11,6.25,20.44,11.36h487.16c0,0,11.36-2.84,16.47-10.79L113.99,465.18z"/>
		<path class="st4" d="M635.3,465.93H116.81c-2.13,0-3.86-1.73-3.86-3.86v-4.22c0-2.13,1.73-3.86,3.86-3.86H635.3
			c2.13,0,3.86,1.73,3.86,3.86v4.22C639.16,464.2,637.43,465.93,635.3,465.93z"/>
		<path class="st5" d="M380.85,169.93c0-2.19-1.78-3.97-3.97-3.97c-2.2,0-3.97,1.78-3.97,3.97c0,2.19,1.78,3.97,3.97,3.97
			C379.07,173.91,380.85,172.13,380.85,169.93z"/>
		<path class="st6" d="M154.87,243.74L154.87,243.74c-0.63,0-1.14-0.51-1.14-1.14v-32.93c0-0.63,0.51-1.14,1.14-1.14l0,0
			c0.63,0,1.14,0.51,1.14,1.14v32.93C156.01,243.24,155.5,243.74,154.87,243.74z"/>
		<g>
			<rect id="XMLID_2_" x="168.97" y="184" class="st7" width="416" height="235.09"/>
			<rect x="238.11" y="184" class="st5" width="346.87" height="13.9"/>
		</g>
		<g>
			
				<ellipse transform="matrix(0.9239 -0.3827 0.3827 0.9239 -77.0966 89.0829)" class="st8" cx="185.38" cy="238.34" rx="9.94" ry="9.94"/>
			<circle class="st8" cx="185.38" cy="266.88" r="9.94"/>
			
				<ellipse transform="matrix(0.9239 -0.3827 0.3827 0.9239 -98.9432 93.4287)" class="st8" cx="185.38" cy="295.42" rx="9.94" ry="9.94"/>
			<circle class="st8" cx="185.38" cy="323.97" r="9.94"/>
			<circle class="st8" cx="185.38" cy="352.51" r="9.94"/>
			
				<ellipse transform="matrix(0.1602 -0.9871 0.9871 0.1602 -220.4524 503.0005)" class="st8" cx="185.38" cy="381.06" rx="9.94" ry="9.94"/>
			<rect x="217.77" y="205.94" class="st8" width="341.88" height="207.18"/>
			<line class="st8" x1="218.31" y1="329.73" x2="560.06" y2="329.73"/>
			<g>
				<line class="st8" x1="415.39" y1="342.28" x2="532.01" y2="342.28"/>
				<line class="st8" x1="415.39" y1="352.61" x2="532.01" y2="352.61"/>
				<line class="st8" x1="415.39" y1="362.95" x2="532.01" y2="362.95"/>
				<line class="st8" x1="415.39" y1="373.28" x2="532.01" y2="373.28"/>
				<line class="st8" x1="415.39" y1="383.61" x2="532.01" y2="383.61"/>
				<line class="st8" x1="415.39" y1="393.95" x2="532.01" y2="393.95"/>
			</g>
			<g>
				<g>
					<line class="st9" x1="383.3" y1="211.08" x2="383.3" y2="212.28"/>
					<line class="st10" x1="383.3" y1="214.65" x2="383.3" y2="322.75"/>
					<line class="st9" x1="383.3" y1="323.94" x2="383.3" y2="325.14"/>
				</g>
			</g>
			<g>
				<path class="st11" d="M388.43,328.46c0-2.83-2.3-5.13-5.13-5.13c-2.83,0-5.13,2.3-5.13,5.13c0,2.83,2.3,5.13,5.13,5.13
					C386.14,333.59,388.43,331.29,388.43,328.46z"/>
				<line class="st12" x1="383.23" y1="325.14" x2="383.23" y2="332.02"/>
				<line class="st12" x1="386.67" y1="328.58" x2="379.79" y2="328.58"/>
			</g>
			<path class="st8" d="M338.68,272.65h-80.82c-3.37,0-6.09-2.73-6.09-6.09l0,0c0-3.37,2.73-6.09,6.09-6.09h80.82
				c3.37,0,6.09,2.73,6.09,6.09l0,0C344.77,269.93,342.04,272.65,338.68,272.65z"/>
			<g>
				<rect x="224.88" y="340.8" class="st13" width="80.85" height="57.75"/>
				<line class="st8" x1="224.88" y1="398.55" x2="305.73" y2="340.8"/>
				<line class="st8" x1="224.88" y1="340.8" x2="305.73" y2="398.55"/>
			</g>
			<g>
				<rect x="317.14" y="340.8" class="st13" width="80.85" height="57.75"/>
				<line class="st8" x1="317.14" y1="398.55" x2="398" y2="340.8"/>
				<line class="st8" x1="317.14" y1="340.8" x2="398" y2="398.55"/>
			</g>
			<line class="st8" x1="195.32" y1="295.42" x2="217.18" y2="295.42"/>
		</g>
	</g>
</g>
<g id="Character">
	<g>
		<g>
			<rect x="390.96" y="213" class="st13" width="148.17" height="105.84"/>
			<line class="st8" x1="390.96" y1="318.84" x2="539.13" y2="213"/>
			<line class="st8" x1="390.96" y1="213" x2="539.13" y2="318.84"/>
		</g>
		<g>
			<g>
				<path class="st4" d="M523.38,267.62c0,0,2,2.77,3.54,5.6c1.54,2.83,2.04,4.87,2.04,4.87s0.63-0.55,3.97-3.56
					c3.34-3.01,3.66-5.85,3.66-5.85l-3.19-4.72C533.4,263.96,525.39,263.39,523.38,267.62z"/>
				<g>
					<path class="st4" d="M520.14,249.99c0,0-1.09,3.15-2.07,3.28c-0.99,0.13-3.92-1.24-3.6,1.23c0.33,2.46,2.28,3.96,2.28,3.96
						s-0.69,8.12-0.28,9.32c0.41,1.2,1.03,2.12,3.99,1.73c2.96-0.39,5.42-0.72,5.42-0.72s0.77,0.15,2.04,0.23
						c1.27,0.08,1.24,0.22,3.41-2.32c2.17-2.54,3.51-0.34,2.95-4.53c-0.55-4.19-1.16-6.87-3.49-9.32
						C528.47,250.4,520.14,249.99,520.14,249.99z"/>
					<path class="st5" d="M518.99,255.01c-0.27,0.92-0.29,1.72-0.04,1.8c0.25,0.07,0.66-0.62,0.93-1.54
						c0.27-0.92,0.29-1.72,0.04-1.8C519.68,253.4,519.26,254.09,518.99,255.01z"/>
				</g>
			</g>
			<path class="st4" d="M545.85,236.19l-17.03-12.85c0,0-2.69-1.2-2.69-3.59c0-2.39-0.3-3.29,0-5.68c0.3-2.39,0-3.59,1.2-3.59
				s1.49,2.69,1.49,2.69l0.9-2.99c0,0,2.09-0.6,2.39,0.9c0.3,1.49,2.69,2.39,2.09,4.48c-0.6,2.09-2.69,5.08-2.69,5.08
				s15.83,6.87,18.82,7.77c2.99,0.9,8.47,3.43,7.87,6.42c-0.6,2.99-3.54,11.94-3.54,11.94L545.85,236.19z"/>
			<path class="st4" d="M529.73,276.83c0,0-4.16,2.86-9,6.44c-6.01,4.44-6.1,14.74-6.52,15.79c-0.71,1.73,18.94,23.09,21.75,26.69
				c2.81,3.6,3.32,9.41,3.32,9.41l26.61-5.77c0,0-13.32-46.5-14-49.91c-0.68-3.41-1.82-7.85-1.82-7.85s1.84-10.51,4.22-19
				c2.38-8.49,3.35-13.92,3.17-15.3c-0.18-1.38-7.52-2.17-10.57-2.23c-3.04-0.07-2.75,0.36-2.75,0.36s-6.62,15.35-6.98,16.1
				C536.77,252.31,529.73,276.83,529.73,276.83z"/>
			<polygon class="st3" points="539.27,335.15 537.94,348.46 521.53,391.48 517.98,441.59 524.63,442.04 537.5,393.25 
				554.79,361.32 562.77,390.59 587.41,439.14 593.71,435.42 578.3,385.71 569.43,334.71 565.88,329.39 			"/>
			<path class="st4" d="M534.64,268c0,0-1.76,2.57-3.19,4.16c-1.43,1.59-3.46,2.09-4,3.33c-0.54,1.24-3.26,5.24-3.26,5.24
				s6.59-1.24,9.96-4.02c3.37-2.78,4.51-8.3,4.51-8.3S536.15,267.1,534.64,268z"/>
			<path class="st4" d="M500.22,322.22c0,0-26.05-8.25-28.57-9.43c-2.52-1.19-4.92-0.92-7.27,0.08c-2.34,1-4.68,0.24-4.74,1.27
				c-0.06,1.03,1.46,1.64,2.31,1.28c0.85-0.36,3.34-0.42,3.34-0.42l-10.01,4.27c0,0-0.22,1.85,1.12,2.04
				c1.34,0.18,3.25,1.13,5.23,1.04c1.98-0.09,10.5-5.49,10.5-5.49s6.8,3.23,13.25,7.59c6.45,4.36,16.45,9.05,19.78,8.49
				c3.32-0.56,7.23-5.95,6.74-8.21C509.78,315.05,500.22,322.22,500.22,322.22z"/>
			<path class="st4" d="M532.94,301.16c0,0-7.77,10.04-11.99,15.27c-4.21,5.23-8.48,14.43-12.01,14.2
				c-3.53-0.23-7.87-7.28-7.65-9.18c0.22-1.9,5.04-6.04,7.81-13.41c2.06-5.48,5.68-14.8,7.4-19.2c0.63-1.6,0.76-2.84,2.13-3.89
				l2.1-1.68"/>
			<path class="st4" d="M501.29,321.44c0.12-1.09,1.77-2.92,3.67-5.67c0.74,1.29,2.33,4.46,4.45,6c1.95,1.41,5.01,2.62,6.29,3.1
				c-3.33,4.09-4.83,5.88-6.76,5.75C505.41,330.39,501.07,323.34,501.29,321.44z"/>
			<path class="st4" d="M541.91,240.6c1.23-2.85,2.22-5.13,2.22-5.13s-0.29-0.43,2.75-0.36c3.04,0.07,11.52,0.98,11.7,2.35
				c0.11,0.84,0.19,4.66-1.87,7.84C554.35,243.36,547.11,239.96,541.91,240.6z"/>
			<path class="st2" d="M527.26,308.89c0,0,4.39-3.3,10.97-5.31"/>
			<g>
				<path class="st3" d="M526.08,256.98c0,0-10.82-7.85-7.47-14.81c3.35-6.96,8.29-9.37,12.84-7.21c4.55,2.16,3.12,4.6,3.12,4.6
					s4.99-0.16,6.75,3.62c1.75,3.78-0.63,6.6-0.63,6.6s2.71,3.4,2.58,8.19c-0.12,4.78-8.49,11.65-10.19,12.13
					c-1.69,0.47-3.04-2.11-3.04-2.11s2.44-4.33,1.35-4.94c-1.08-0.61-3.78,1.75-3.78,1.75s-1.35,1.18-1.74-1.78
					C525.48,260.07,526.08,256.98,526.08,256.98z"/>
			</g>
			<path class="st4" d="M517.98,441.59c0,0-4.99,4.88-9.87,6.21c-4.88,1.33-7.17,2.66-7.17,2.66l-1.1,1.93
				c-0.41,0.72,0.11,1.62,0.94,1.62h24.3c0,0,0.44-1.77,0.44-5.77c0-3.99-0.89-6.21-0.89-6.21L517.98,441.59z"/>
			<path class="st4" d="M587.41,439.14l-0.36,3.7c0,0-1.54,3.84-3.84,5.38s-5.12,1.54-5.12,3.07c0,1.54,0,2.82,0,2.82h9.47
				c0,0,2.05,0.26,4.86-2.3c2.82-2.56,3.33-4.86,5.38-6.14c2.05-1.28,2.05-3.07,1.02-5.89c-1.02-2.82-5.12-4.35-5.12-4.35
				L587.41,439.14z"/>
		</g>
	</g>
</g>
</svg>
