<svg width="200" height="347" viewBox="0 0 200 347" fill="none" xmlns="http://www.w3.org/2000/svg">
<g clip-path="url(#clip0_50_593)">
<path opacity="0.45" d="M18.2024 324.299C10.4945 324.933 0.708471 327.713 0.142578 335.427C30.7984 342.391 62.3616 344.205 93.8077 345.717C107.867 346.4 121.956 347.034 136.006 346.136C158.215 344.703 180.013 339.468 200.449 330.658C139.665 325.138 79.2701 319.296 18.2024 324.299Z" fill="#D4E3D7"/>
<path d="M105.701 77.2563L117.985 74.8278C117.985 74.8278 119.048 74.6815 118.746 76.0372L101.252 80.7088L98.0129 81.5378L96.5786 78.9728L105.701 77.2563Z" fill="#50B848"/>
<path d="M105.701 77.2563L117.985 74.8278C117.985 74.8278 119.048 74.6815 118.746 76.0372L101.252 80.7088L98.0129 81.5378L96.5786 78.9728L105.701 77.2563Z" fill="url(#paint0_linear_50_593)"/>
<path d="M122.785 17.0901C120.414 20.6012 120.034 25.1656 120.834 29.3399C121.178 30.8159 121.435 32.3106 121.605 33.8165C121.946 39.2879 118.258 44.1839 117.399 49.5968C116.57 54.8439 118.521 60.2276 121.585 64.5677C124.649 68.9077 128.766 72.37 132.835 75.8128C136.737 71.7361 138.074 65.8551 138.181 60.2081C138.289 54.5611 137.294 49.0117 137.137 43.3939C136.983 40.7208 137.26 38.0403 137.957 35.455C139.352 30.8223 142.835 26.3652 141.655 21.6838C140.933 18.9627 138.728 16.9243 136.659 15.042C134.288 12.9061 132.62 11.8333 129.293 12.5745C126.627 13.1951 124.299 14.8104 122.785 17.0901Z" fill="#606161"/>
<path d="M122.785 17.0901C120.414 20.6012 120.034 25.1656 120.834 29.3399C121.178 30.8159 121.435 32.3106 121.605 33.8165C121.946 39.2879 118.258 44.1839 117.399 49.5968C116.57 54.8439 118.521 60.2276 121.585 64.5677C124.649 68.9077 128.766 72.37 132.835 75.8128C136.737 71.7361 138.074 65.8551 138.181 60.2081C138.289 54.5611 137.294 49.0117 137.137 43.3939C136.983 40.7208 137.26 38.0403 137.957 35.455C139.352 30.8223 142.835 26.3652 141.655 21.6838C140.933 18.9627 138.728 16.9243 136.659 15.042C134.288 12.9061 132.62 11.8333 129.293 12.5745C126.627 13.1951 124.299 14.8104 122.785 17.0901Z" fill="url(#paint1_linear_50_593)"/>
<path d="M123.79 116.083L75.0063 98.2642L77.7773 106.457C77.7773 106.457 113.877 133.375 122.473 131.814C131.069 130.254 123.79 116.083 123.79 116.083Z" fill="#BA816C"/>
<path d="M73.0744 97.0743L61.6785 70.4097C61.3523 69.6488 61.2034 68.8237 61.2431 67.9968C61.2828 67.1699 61.51 66.3629 61.9075 65.6367C62.3051 64.9105 62.8626 64.2841 63.5379 63.8049C64.2132 63.3257 64.9886 63.0062 65.8056 62.8706L85.7777 59.5156C87.0337 59.3025 88.3247 59.5348 89.4275 60.1724C90.5303 60.8099 91.3756 61.8126 91.8172 63.0072L111.087 115.03C111.368 115.793 111.476 116.609 111.403 117.419C111.33 118.229 111.077 119.012 110.663 119.713C110.249 120.413 109.685 121.013 109.01 121.468C108.336 121.923 107.569 122.222 106.765 122.344L88.9974 124.978C87.7881 125.153 86.5548 124.919 85.4939 124.313C84.433 123.707 83.6055 122.763 83.1434 121.632L73.0744 97.0743Z" fill="white"/>
<path d="M71.3281 97.3962L60.5273 72.1165C60.2181 71.395 60.0767 70.6129 60.1137 69.8289C60.1506 69.0449 60.3651 68.2796 60.7408 67.5904C61.1165 66.9012 61.6437 66.3063 62.2827 65.8502C62.9218 65.3942 63.6559 65.0891 64.43 64.9578L83.3679 61.7783C84.5593 61.5803 85.7824 61.8029 86.8274 62.408C87.8725 63.013 88.6742 63.9628 89.0952 65.0943L107.36 114.425C107.628 115.147 107.732 115.92 107.664 116.687C107.595 117.454 107.357 118.197 106.965 118.86C106.573 119.523 106.039 120.091 105.4 120.522C104.761 120.952 104.034 121.235 103.272 121.35L86.4218 123.876C85.2724 124.045 84.0993 123.825 83.0896 123.251C82.0798 122.676 81.2916 121.78 80.8507 120.706L71.3281 97.3962Z" fill="#50B848"/>
<path d="M71.3281 97.3962L60.5273 72.1165C60.2181 71.395 60.0767 70.6129 60.1137 69.8289C60.1506 69.0449 60.3651 68.2796 60.7408 67.5904C61.1165 66.9012 61.6437 66.3063 62.2827 65.8502C62.9218 65.3942 63.6559 65.0891 64.43 64.9578L83.3679 61.7783C84.5593 61.5803 85.7824 61.8029 86.8274 62.408C87.8725 63.013 88.6742 63.9628 89.0952 65.0943L107.36 114.425C107.628 115.147 107.732 115.92 107.664 116.687C107.595 117.454 107.357 118.197 106.965 118.86C106.573 119.523 106.039 120.091 105.4 120.522C104.761 120.952 104.034 121.235 103.272 121.35L86.4218 123.876C85.2724 124.045 84.0993 123.825 83.0896 123.251C82.0798 122.676 81.2916 121.78 80.8507 120.706L71.3281 97.3962Z" fill="url(#paint2_linear_50_593)"/>
<path d="M78.2164 105.062C78.2174 105.579 78.0869 106.089 77.8371 106.542C77.5872 106.995 77.2263 107.377 76.7881 107.652C76.35 107.928 75.849 108.087 75.3322 108.116C74.8154 108.145 74.2998 108.042 73.8338 107.817C73.3678 107.592 72.9666 107.252 72.6681 106.829C72.3695 106.407 72.1832 105.915 72.1268 105.401C72.0704 104.886 72.1457 104.366 72.3456 103.889C72.5456 103.412 72.8635 102.993 73.2697 102.673" stroke="#50B848" stroke-width="0.767998" stroke-miterlimit="10" stroke-linecap="round"/>
<path d="M81.2313 112.445C81.2323 112.962 81.1018 113.472 80.8519 113.925C80.6021 114.378 80.2412 114.76 79.803 115.035C79.3648 115.311 78.8639 115.47 78.3471 115.499C77.8303 115.528 77.3147 115.425 76.8487 115.2C76.3827 114.975 75.9815 114.635 75.6829 114.212C75.3843 113.79 75.1981 113.298 75.1417 112.784C75.0853 112.269 75.1606 111.749 75.3605 111.272C75.5604 110.795 75.8784 110.376 76.2846 110.056" stroke="#50B848" stroke-width="0.767998" stroke-miterlimit="10" stroke-linecap="round"/>
<path d="M84.2459 119.838C84.2453 120.355 84.1134 120.863 83.8625 121.315C83.6116 121.767 83.2499 122.148 82.8115 122.422C82.373 122.696 81.8721 122.855 81.3556 122.882C80.8392 122.91 80.3242 122.806 79.8589 122.581C79.3937 122.355 78.9933 122.015 78.6955 121.592C78.3976 121.17 78.212 120.678 78.1561 120.164C78.1002 119.65 78.1757 119.131 78.3757 118.654C78.5756 118.177 78.8934 117.759 79.2992 117.439" stroke="#50B848" stroke-width="0.767998" stroke-miterlimit="10" stroke-linecap="round"/>
<path d="M129.859 69.766L106.706 111.801L121.166 118.043C121.166 118.043 132.376 73.3941 129.859 69.766Z" fill="#50B848"/>
<path d="M164.349 314.41L165.178 325.977C163.174 327.168 160.849 327.71 158.524 327.528C154.992 327.079 147.958 319.852 146.26 320.203L146.319 316.76" fill="#BA816C"/>
<path d="M123.156 306.149L123.985 317.716C121.981 318.908 119.656 319.449 117.331 319.267C113.809 318.818 106.765 311.591 105.067 311.942L105.135 308.5" fill="#BA816C"/>
<path d="M126.083 159.211C126.083 159.211 132.279 241.584 132.971 242.94C133.664 244.296 146.241 317.892 146.241 317.892C146.241 317.892 155.022 323.519 165.393 316.77L157.207 240.96L161.003 168.661C161.003 168.661 131.4 156.509 126.083 159.211Z" fill="#606161"/>
<path d="M114.716 152.442C114.716 152.442 100.608 230.954 101.115 232.416C101.623 233.879 104.579 309.845 104.579 309.845C104.579 309.845 112.502 315.18 123.654 309.845L125.41 233.616L138.581 162.419C138.581 162.419 120.346 150.462 114.716 152.442Z" fill="#606161"/>
<path d="M114.716 152.442C114.716 152.442 100.608 230.954 101.115 232.416C101.623 233.879 104.579 309.845 104.579 309.845C104.579 309.845 112.502 315.18 123.654 309.845L125.41 233.616L138.581 162.419C138.581 162.419 120.346 150.462 114.716 152.442Z" fill="url(#paint3_linear_50_593)"/>
<path d="M126.083 159.211C126.083 159.211 132.279 241.584 132.971 242.94C133.664 244.296 146.241 317.892 146.241 317.892C146.241 317.892 155.022 323.519 165.393 316.77L157.207 240.96L161.003 168.661C161.003 168.661 131.4 156.509 126.083 159.211Z" fill="#606161"/>
<path d="M126.083 159.211C126.083 159.211 132.279 241.584 132.971 242.94C133.664 244.296 146.241 317.892 146.241 317.892C146.241 317.892 155.022 323.519 165.393 316.77L157.207 240.96L161.003 168.661C161.003 168.661 131.4 156.509 126.083 159.211Z" fill="url(#paint4_linear_50_593)"/>
<path d="M167.12 63.3095C167.12 63.3095 152.261 55.8777 146.855 56.5507C137.02 57.7796 133.01 67.9909 130.269 76.1932C121.039 104.028 123.849 132.38 116.443 160.547C116.443 160.547 118.463 170.67 131.303 172.699C144.143 174.728 138.728 109.9 143.46 97.0743C148.192 84.2492 172.525 66.0111 167.12 63.3095Z" fill="white"/>
<path d="M144.66 57.0481C144.66 57.0481 133.342 59.974 130.649 64.6554C130.649 67.1717 127.771 71.5703 127.117 74.2524C123.917 87.4481 119.078 100.069 114.492 112.669C111.455 121.323 109.381 130.285 108.306 139.393C107.711 144.015 107.77 148.824 107.009 153.398C106.248 157.972 106.813 158.918 110.306 161.863C110.902 162.361 120.229 169.715 120.414 168.544C123.185 151.73 125.95 134.916 128.708 118.102C129.957 110.485 130.747 103.258 132.864 95.7577C134.977 88.4461 137.562 81.279 140.601 74.3011C141.148 73.0137 148.28 56.1313 144.66 57.0481Z" fill="#50B848"/>
<path d="M164.964 65.8648C160.983 62.9389 157.363 64.002 153.851 67.6008C151.148 70.3902 149.538 74.0378 148.055 77.6171C143.646 87.8817 140.127 98.506 137.537 109.373C136.445 114.249 135.118 118.843 134.484 123.876C133.801 129.259 133.332 134.672 132.425 140.026C131.225 147.146 129.293 154.656 129.293 161.873C129.293 170.651 129.966 178.756 143.479 180.111C156.992 181.467 165.393 180.384 165.393 180.384C165.393 180.384 176.584 96.3721 174.555 81.5183C174.077 78.0463 173.823 74.4767 171.364 71.7653C169.529 69.7734 167.557 67.9125 165.461 66.1964C165.299 66.0923 165.133 65.9818 164.964 65.8648Z" fill="#50B848"/>
<path d="M144.66 57.0481C144.66 57.0481 133.342 59.974 130.649 64.6554C130.649 67.1717 127.771 71.5703 127.117 74.2524C123.917 87.4481 119.078 100.069 114.492 112.669C111.455 121.323 109.381 130.285 108.306 139.393C107.711 144.015 107.77 148.824 107.009 153.398C106.248 157.972 106.813 158.918 110.306 161.863C110.902 162.361 120.229 169.715 120.414 168.544C123.185 151.73 125.95 134.916 128.708 118.102C129.957 110.485 130.747 103.258 132.864 95.7577C134.977 88.4461 137.562 81.279 140.601 74.3011C141.148 73.0137 148.28 56.1313 144.66 57.0481Z" fill="url(#paint5_linear_50_593)"/>
<path d="M164.964 65.8648C160.983 62.9389 157.363 64.002 153.851 67.6008C151.148 70.3902 149.538 74.0378 148.055 77.6171C143.646 87.8817 140.127 98.506 137.537 109.373C136.445 114.249 135.118 118.843 134.484 123.876C133.801 129.259 133.332 134.672 132.425 140.026C131.225 147.146 129.293 154.656 129.293 161.873C129.293 170.651 129.966 178.756 143.479 180.111C156.992 181.467 165.393 180.384 165.393 180.384C165.393 180.384 176.584 96.3721 174.555 81.5183C174.077 78.0463 173.823 74.4767 171.364 71.7653C169.529 69.7734 167.557 67.9125 165.461 66.1964C165.299 66.0923 165.133 65.9818 164.964 65.8648Z" fill="url(#paint6_linear_50_593)"/>
<path d="M128.825 18.8652C125.01 24.951 124.629 33.4361 124.21 40.3998C123.839 46.4076 122.58 56.5409 130.522 58.5501C132.201 58.9792 133.967 58.6086 135.684 58.7159C135.924 58.7118 136.161 58.7653 136.376 58.8719C136.553 59.0176 136.698 59.1988 136.8 59.4037C136.903 59.6087 136.961 59.8329 136.972 60.0618C137.178 61.6323 137.554 63.1758 138.094 64.6652C139.284 67.4643 142.728 69.3856 145.616 67.5911C148.094 66.0794 148.787 61.5442 149.519 59.0182C151.06 53.5663 146.309 46.5344 145.519 40.9849C144.162 31.5343 142.816 20.728 138.084 17.3535C133.859 14.3788 130.903 15.5492 128.825 18.8652Z" fill="#BA816C"/>
<path d="M127.761 16.2124C129.595 19.5479 133.323 22.8541 135.293 25.2339C138.981 29.6812 143.284 34.1091 144.348 40.0194C145.04 43.8621 144.133 47.8218 143.626 51.6645C143.338 53.8867 143.182 56.1241 143.157 58.3648C143.087 59.5321 143.215 60.7029 143.538 61.8271C144.894 65.8843 148.963 67.3765 152.943 67.8154C156.261 68.186 159.637 67.9227 162.934 68.4688C165.997 69.0003 168.901 70.211 171.433 72.0118C173.966 73.8127 176.063 76.158 177.569 78.8753C179.75 76.2868 181.066 73.0821 181.336 69.7091C181.605 66.3361 180.814 62.9633 179.072 60.0618C175.882 55 169.842 51.7132 168.34 45.9395C166.837 40.1657 170.223 34.6162 171.111 28.8327C172.213 21.7911 169.374 14.4471 164.398 9.32675C159.422 4.20644 152.504 1.27079 145.44 0.324748C142.88 -0.115786 140.257 -0.0261582 137.733 0.588079C135.45 1.29626 133.347 2.48707 131.566 4.07965C129.069 6.21555 126.922 9.09268 126.756 12.3697C126.733 13.7184 127.081 15.0475 127.761 16.2124Z" fill="#606161"/>
<path d="M127.761 16.2124C129.595 19.5479 133.323 22.8541 135.293 25.2339C138.981 29.6812 143.284 34.1091 144.348 40.0194C145.04 43.8621 144.133 47.8218 143.626 51.6645C143.338 53.8867 143.182 56.1241 143.157 58.3648C143.087 59.5321 143.215 60.7029 143.538 61.8271C144.894 65.8843 148.963 67.3765 152.943 67.8154C156.261 68.186 159.637 67.9227 162.934 68.4688C165.997 69.0003 168.901 70.211 171.433 72.0118C173.966 73.8127 176.063 76.158 177.569 78.8753C179.75 76.2868 181.066 73.0821 181.336 69.7091C181.605 66.3361 180.814 62.9633 179.072 60.0618C175.882 55 169.842 51.7132 168.34 45.9395C166.837 40.1657 170.223 34.6162 171.111 28.8327C172.213 21.7911 169.374 14.4471 164.398 9.32675C159.422 4.20644 152.504 1.27079 145.44 0.324748C142.88 -0.115786 140.257 -0.0261582 137.733 0.588079C135.45 1.29626 133.347 2.48707 131.566 4.07965C129.069 6.21555 126.922 9.09268 126.756 12.3697C126.733 13.7184 127.081 15.0475 127.761 16.2124Z" fill="url(#paint7_linear_50_593)"/>
<path d="M174.633 138.729C163.49 136.964 118.239 92.8903 118.239 92.8903C118.239 92.8903 123.283 85.0879 124.19 85.2732C124.737 85.4098 146.523 98.9274 163.676 109.656L184.272 122.5C184.862 122.898 185.361 123.416 185.738 124.019C186.114 124.622 186.36 125.298 186.458 126.002C187.59 131.444 183.346 140.114 174.633 138.729Z" fill="#BA816C"/>
<path d="M188.068 119.126C188.068 121.603 188.068 124.197 186.683 126.285C186.615 126.203 186.54 126.127 186.458 126.06C186.36 125.356 186.114 124.68 185.738 124.077C185.361 123.474 184.862 122.957 184.273 122.559L163.676 109.665C160.339 100.156 156.846 90.296 157.09 80.5333C157.084 78.8073 157.467 77.1021 158.212 75.545C158.957 73.9879 160.045 72.6192 161.393 71.541C172.067 63.5728 183.375 84.5417 185.59 92.4514C188.039 101.054 188.068 110.114 188.068 119.126Z" fill="#50B848"/>
<path d="M138.581 141.207L160.612 153.876L159.071 160.371L136.854 146.776L138.581 141.207Z" fill="#50B848"/>
<path d="M112.092 148.687C112.404 148.004 121.234 141.207 121.234 141.207V135.647L112.092 142.172V148.687Z" fill="#50B848"/>
<path d="M113.311 77.1003C110.5 76.3364 107.585 76.0269 104.677 76.1835C103.086 76.1835 101.194 76.3395 100.364 77.6952C100.09 78.2328 99.9719 78.8361 100.022 79.4373C100.072 80.0385 100.288 80.6139 100.647 81.099C101.371 82.0641 102.247 82.9042 103.242 83.586C104.316 84.3875 105.275 85.3326 106.091 86.3948C106.696 87.2336 107.155 88.1796 107.818 88.9696C109.575 91.0568 112.463 91.7395 115.175 92.0808C116.506 92.1302 117.807 92.4839 118.98 93.1146C119.265 93.3581 119.597 93.5406 119.956 93.6511C120.264 93.6917 120.578 93.6479 120.863 93.5243C124.444 92.2466 125.878 87.7213 123.41 84.9026C120.61 81.6939 117.458 78.4754 113.311 77.1003Z" fill="#BA816C"/>
<path d="M77.514 106.837C74.1381 106.145 70.5476 105.335 68.1474 102.858C66.9026 101.468 65.9118 99.8702 65.2204 98.1374C64.5765 96.7135 63.952 95.2701 63.3666 93.8169C62.9419 93.158 62.7852 92.3619 62.9285 91.5913C63.0718 90.8208 63.5042 90.1341 64.1374 89.6718C65.5424 88.1894 67.2791 86.6484 69.3183 86.7459C70.1474 86.8422 70.9531 87.0832 71.6989 87.4579C74.4698 88.6478 77.4749 90.0425 78.7628 92.7635C79.3042 94.0943 79.6016 95.5115 79.6409 96.9476C79.8165 99.0802 79.9434 101.213 80.0215 103.346C80.0995 105.355 79.8751 107.334 77.514 106.837Z" fill="#BA816C"/>
<path d="M89.5926 319.062C89.0759 319.338 88.6192 319.713 88.2491 320.167C87.8789 320.621 87.6027 321.144 87.4364 321.705C87.3874 322.329 87.5266 322.954 87.8362 323.498C88.1458 324.042 88.6115 324.481 89.1731 324.758C90.3082 325.298 91.5455 325.591 92.8026 325.616C101.117 326.326 109.473 326.408 117.799 325.86C119.751 325.733 121.858 325.47 123.107 323.987C124.356 322.505 124.219 320.027 123.907 317.96C123.751 316.985 123.468 315.795 122.522 315.453C121.869 315.3 121.185 315.362 120.57 315.629C117.759 316.398 114.773 316.234 112.062 315.161C109.701 314.185 107.623 312.089 104.969 312.079C99.9543 312.001 93.5246 316.263 89.5926 319.062Z" fill="#50B848"/>
<path d="M131.654 326.474C130.617 327.037 129.845 327.987 129.508 329.117C129.459 329.743 129.599 330.368 129.908 330.914C130.218 331.459 130.683 331.9 131.244 332.18C132.382 332.713 133.618 333.002 134.874 333.028C143.188 333.738 151.544 333.82 159.871 333.272C161.822 333.145 163.93 332.882 165.178 331.4C166.427 329.917 166.291 327.44 165.979 325.372C165.822 324.397 165.539 323.207 164.593 322.866C163.941 322.713 163.256 322.774 162.642 323.041C159.83 323.811 156.844 323.646 154.134 322.573C151.773 321.598 149.694 319.501 147.041 319.491C142.045 319.462 135.596 323.724 131.654 326.474Z" fill="#50B848"/>
<path d="M89.5926 319.062C89.0759 319.338 88.6192 319.713 88.2491 320.167C87.8789 320.621 87.6027 321.144 87.4364 321.705C87.3874 322.329 87.5266 322.954 87.8362 323.498C88.1458 324.042 88.6115 324.481 89.1731 324.758C90.3082 325.298 91.5455 325.591 92.8026 325.616C101.117 326.326 109.473 326.408 117.799 325.86C119.751 325.733 121.858 325.47 123.107 323.987C124.356 322.505 124.219 320.027 123.907 317.96C123.751 316.985 123.468 315.795 122.522 315.453C121.869 315.3 121.185 315.362 120.57 315.629C117.759 316.398 114.773 316.234 112.062 315.161C109.701 314.185 107.623 312.089 104.969 312.079C99.9543 312.001 93.5246 316.263 89.5926 319.062Z" fill="url(#paint8_linear_50_593)"/>
<path d="M131.654 326.474C130.617 327.037 129.845 327.987 129.508 329.117C129.459 329.743 129.599 330.368 129.908 330.914C130.218 331.459 130.683 331.9 131.244 332.18C132.382 332.713 133.618 333.002 134.874 333.028C143.188 333.738 151.544 333.82 159.871 333.272C161.822 333.145 163.93 332.882 165.178 331.4C166.427 329.917 166.291 327.44 165.979 325.372C165.822 324.397 165.539 323.207 164.593 322.866C163.941 322.713 163.256 322.774 162.642 323.041C159.83 323.811 156.844 323.646 154.134 322.573C151.773 321.598 149.694 319.501 147.041 319.491C142.045 319.462 135.596 323.724 131.654 326.474Z" fill="url(#paint9_linear_50_593)"/>
<path d="M66.1571 75.5203C66.1564 76.0372 66.0245 76.5456 65.7736 76.9976C65.5227 77.4497 65.1611 77.8306 64.7226 78.1048C64.2841 78.3789 63.7832 78.5372 63.2668 78.5649C62.7504 78.5926 62.2354 78.4888 61.7701 78.2631C61.3048 78.0374 60.9045 77.6973 60.6066 77.2747C60.3088 76.8521 60.1232 76.3608 60.0672 75.8468C60.0113 75.3329 60.0868 74.8132 60.2868 74.3364C60.4867 73.8597 60.8045 73.4415 61.2104 73.121" stroke="#50B848" stroke-width="0.767998" stroke-miterlimit="10" stroke-linecap="round"/>
<path d="M69.1717 82.9033C69.1727 83.4206 69.0422 83.9298 68.7924 84.3829C68.5425 84.836 68.1816 85.2182 67.7434 85.4936C67.3053 85.769 66.8043 85.9286 66.2875 85.9574C65.7707 85.9861 65.2551 85.8831 64.7891 85.658C64.3231 85.4329 63.9219 85.0931 63.6234 84.6704C63.3248 84.2478 63.1385 83.7563 63.0821 83.242C63.0258 82.7277 63.101 82.2075 63.301 81.7303C63.5009 81.2531 63.8188 80.8345 64.225 80.5138" stroke="#50B848" stroke-width="0.767998" stroke-miterlimit="10" stroke-linecap="round"/>
</g>
<defs>
<linearGradient id="paint0_linear_50_593" x1="107.106" y1="73.2381" x2="109.066" y2="86.6584" gradientUnits="userSpaceOnUse">
<stop stop-color="#010101" stop-opacity="0"/>
<stop offset="0.47" stop-color="#010101" stop-opacity="0.47"/>
<stop offset="0.95" stop-color="#010101"/>
</linearGradient>
<linearGradient id="paint1_linear_50_593" x1="117.156" y1="44.0961" x2="141.86" y2="44.0961" gradientUnits="userSpaceOnUse">
<stop stop-color="#010101" stop-opacity="0"/>
<stop offset="0.47" stop-color="#010101" stop-opacity="0.47"/>
<stop offset="0.95" stop-color="#010101"/>
</linearGradient>
<linearGradient id="paint2_linear_50_593" x1="92.5296" y1="89.9059" x2="36.4335" y2="111.016" gradientUnits="userSpaceOnUse">
<stop stop-color="#010101" stop-opacity="0"/>
<stop offset="0.47" stop-color="#010101" stop-opacity="0.47"/>
<stop offset="0.95" stop-color="#010101"/>
</linearGradient>
<linearGradient id="paint3_linear_50_593" x1="101.106" y1="232.202" x2="138.581" y2="232.202" gradientUnits="userSpaceOnUse">
<stop stop-color="#010101" stop-opacity="0"/>
<stop offset="0.47" stop-color="#010101" stop-opacity="0.47"/>
<stop offset="0.95" stop-color="#010101"/>
</linearGradient>
<linearGradient id="paint4_linear_50_593" x1="126.083" y1="239.458" x2="165.393" y2="239.458" gradientUnits="userSpaceOnUse">
<stop stop-color="#010101" stop-opacity="0"/>
<stop offset="0.47" stop-color="#010101" stop-opacity="0.47"/>
<stop offset="0.95" stop-color="#010101"/>
</linearGradient>
<linearGradient id="paint5_linear_50_593" x1="143.782" y1="114.913" x2="68.6859" y2="101.033" gradientUnits="userSpaceOnUse">
<stop stop-color="#010101" stop-opacity="0"/>
<stop offset="0.47" stop-color="#010101" stop-opacity="0.47"/>
<stop offset="0.95" stop-color="#010101"/>
</linearGradient>
<linearGradient id="paint6_linear_50_593" x1="132.679" y1="117.712" x2="202.642" y2="134.001" gradientUnits="userSpaceOnUse">
<stop stop-color="#010101" stop-opacity="0"/>
<stop offset="0.47" stop-color="#010101" stop-opacity="0.47"/>
<stop offset="0.95" stop-color="#010101"/>
</linearGradient>
<linearGradient id="paint7_linear_50_593" x1="126.688" y1="39.483" x2="181.365" y2="39.483" gradientUnits="userSpaceOnUse">
<stop stop-color="#010101" stop-opacity="0"/>
<stop offset="0.47" stop-color="#010101" stop-opacity="0.47"/>
<stop offset="0.95" stop-color="#010101"/>
</linearGradient>
<linearGradient id="paint8_linear_50_593" x1="106.657" y1="302.901" x2="104.844" y2="340.889" gradientUnits="userSpaceOnUse">
<stop stop-color="#010101" stop-opacity="0"/>
<stop offset="0.47" stop-color="#010101" stop-opacity="0.47"/>
<stop offset="0.95" stop-color="#010101"/>
</linearGradient>
<linearGradient id="paint9_linear_50_593" x1="147.85" y1="310.713" x2="147.85" y2="353.666" gradientUnits="userSpaceOnUse">
<stop stop-color="#010101" stop-opacity="0"/>
<stop offset="0.47" stop-color="#010101" stop-opacity="0.47"/>
<stop offset="0.95" stop-color="#010101"/>
</linearGradient>
<clipPath id="clip0_50_593">
<rect width="200" height="347" fill="white"/>
</clipPath>
</defs>
</svg>
