<svg width="54" height="50" viewBox="0 0 54 50" fill="none" xmlns="http://www.w3.org/2000/svg">
<g filter="url(#filter0_d_4_1636)">
<path d="M22.75 31.7234V16.2234C22.75 15.0007 21.7704 14.0714 20.5625 14.0714H16.1875C14.9796 14.0714 14 15.063 14 16.2234V31.6612C14 32.8839 14.9796 33.8132 16.1875 33.8132H20.5625C21.7725 33.9377 22.75 33.0036 22.75 31.7234ZM49 16.2926C49 14.4589 47.5316 12.9726 45.7188 12.9726H35.7041C37.2606 10.3494 38.0639 7.37598 38.0639 6.32835C38.0625 4.6967 36.7979 3 34.6787 3C30.3632 3 32.8768 8.26931 27.2822 12.7982L26.168 13.6978C25.3613 14.3551 24.9512 15.317 24.9443 16.2857L24.9375 27.3571C24.9375 28.402 25.4237 29.3867 26.25 30.0136L28.5838 31.7843C30.4746 33.225 32.7783 34 35.1436 34H39.1562C40.9691 34 42.4375 32.5144 42.4375 30.68C42.4375 30.4284 42.4047 30.1857 42.3523 29.9499C43.668 29.5161 44.625 28.2844 44.625 26.8036C44.625 26.1706 44.4406 25.585 44.137 25.082C45.6572 24.7969 46.8125 23.4475 46.8125 21.8283C46.8125 20.9634 46.478 20.1829 45.943 19.5919C47.6465 19.4757 49 18.0502 49 16.2926Z" fill="#3AAA35"/>
</g>
<g filter="url(#filter1_bdii_4_1636)">
<path d="M14.75 37.7234V22.2234C14.75 21.0007 13.7704 20.0714 12.5625 20.0714H8.1875C6.97959 20.0714 6 21.063 6 22.2234V37.6612C6 38.8839 6.97959 39.8132 8.1875 39.8132H12.5625C13.7725 39.9377 14.75 39.0036 14.75 37.7234ZM41 22.2926C41 20.4589 39.5316 18.9726 37.7188 18.9726H27.7041C29.2606 16.3494 30.0639 13.376 30.0639 12.3283C30.0625 10.6967 28.7979 9 26.6787 9C22.3632 9 24.8768 14.2693 19.2822 18.7982L18.168 19.6978C17.3613 20.3551 16.9512 21.317 16.9443 22.2857L16.9375 33.3571C16.9375 34.402 17.4237 35.3867 18.25 36.0136L20.5838 37.7843C22.4746 39.225 24.7783 40 27.1436 40H31.1562C32.9691 40 34.4375 38.5144 34.4375 36.68C34.4375 36.4284 34.4047 36.1857 34.3523 35.9499C35.668 35.5161 36.625 34.2844 36.625 32.8036C36.625 32.1706 36.4406 31.585 36.137 31.082C37.6572 30.7969 38.8125 29.4475 38.8125 27.8283C38.8125 26.9634 38.478 26.1829 37.943 25.5919C39.6465 25.4757 41 24.0502 41 22.2926Z" fill="#E8E8E8" fill-opacity="0.6" shape-rendering="crispEdges"/>
<path d="M12.6137 39.3158L12.5882 39.3132H12.5625H8.1875C7.2427 39.3132 6.5 38.5949 6.5 37.6612V22.2234C6.5 21.3427 7.25222 20.5714 8.1875 20.5714H12.5625C13.5073 20.5714 14.25 21.2897 14.25 22.2234V37.7234C14.25 38.7359 13.501 39.4071 12.6137 39.3158ZM27.2741 18.7174L26.826 19.4726H27.7041H37.7188C39.2499 19.4726 40.5 20.7295 40.5 22.2926C40.5 23.7876 39.3498 24.9947 37.9089 25.0931L36.8804 25.1633L37.5723 25.9275C38.0299 26.4329 38.3125 27.0957 38.3125 27.8283C38.3125 29.2057 37.3298 30.3496 36.0448 30.5905L35.3365 30.7234L35.7089 31.3403C35.9699 31.7727 36.125 32.2698 36.125 32.8036C36.125 34.0608 35.3139 35.1064 34.1957 35.4751L33.7662 35.6167L33.8642 36.0583C33.9104 36.2664 33.9375 36.4722 33.9375 36.68C33.9375 38.2438 32.6875 39.5 31.1562 39.5H27.1436C24.8877 39.5 22.6905 38.7609 20.8868 37.3866L20.886 37.386L18.5522 35.6153C17.8518 35.0839 17.4376 34.2473 17.4375 33.3575C17.4375 33.3573 17.4375 33.3572 17.4375 33.3571L17.4443 22.2892C17.4443 22.2887 17.4443 22.2882 17.4443 22.2877C17.4506 21.4572 17.8017 20.6418 18.4829 20.0861C18.4832 20.0859 18.4835 20.0856 18.4838 20.0854L19.5963 19.1873L19.5968 19.1868C22.4785 16.854 23.3006 14.3158 23.9128 12.4258C23.9205 12.402 23.9281 12.3784 23.9357 12.3549C24.2494 11.3871 24.4893 10.6871 24.8773 10.2093C25.2241 9.78225 25.7214 9.5 26.6787 9.5C28.4857 9.5 29.5627 10.9355 29.5639 12.3288C29.5638 12.7706 29.3839 13.7139 28.9927 14.9034C28.6066 16.0775 28.0307 17.4423 27.2741 18.7174Z" stroke="white" shape-rendering="crispEdges"/>
</g>
<defs>
<filter id="filter0_d_4_1636" x="11" y="0" width="43" height="39" filterUnits="userSpaceOnUse" color-interpolation-filters="sRGB">
<feFlood flood-opacity="0" result="BackgroundImageFix"/>
<feColorMatrix in="SourceAlpha" type="matrix" values="0 0 0 0 0 0 0 0 0 0 0 0 0 0 0 0 0 0 127 0" result="hardAlpha"/>
<feOffset dx="1" dy="1"/>
<feGaussianBlur stdDeviation="2"/>
<feComposite in2="hardAlpha" operator="out"/>
<feColorMatrix type="matrix" values="0 0 0 0 0.522901 0 0 0 0 0.820833 0 0 0 0 0.509601 0 0 0 1 0"/>
<feBlend mode="normal" in2="BackgroundImageFix" result="effect1_dropShadow_4_1636"/>
<feBlend mode="normal" in="SourceGraphic" in2="effect1_dropShadow_4_1636" result="shape"/>
</filter>
<filter id="filter1_bdii_4_1636" x="0" y="3" width="51" height="47" filterUnits="userSpaceOnUse" color-interpolation-filters="sRGB">
<feFlood flood-opacity="0" result="BackgroundImageFix"/>
<feGaussianBlur in="BackgroundImageFix" stdDeviation="1.5"/>
<feComposite in2="SourceAlpha" operator="in" result="effect1_backgroundBlur_4_1636"/>
<feColorMatrix in="SourceAlpha" type="matrix" values="0 0 0 0 0 0 0 0 0 0 0 0 0 0 0 0 0 0 127 0" result="hardAlpha"/>
<feOffset dx="2" dy="2"/>
<feGaussianBlur stdDeviation="4"/>
<feComposite in2="hardAlpha" operator="out"/>
<feColorMatrix type="matrix" values="0 0 0 0 0.234444 0 0 0 0 0.879167 0 0 0 0 0.417514 0 0 0 0.6 0"/>
<feBlend mode="normal" in2="effect1_backgroundBlur_4_1636" result="effect2_dropShadow_4_1636"/>
<feBlend mode="normal" in="SourceGraphic" in2="effect2_dropShadow_4_1636" result="shape"/>
<feColorMatrix in="SourceAlpha" type="matrix" values="0 0 0 0 0 0 0 0 0 0 0 0 0 0 0 0 0 0 127 0" result="hardAlpha"/>
<feOffset dx="-2" dy="-2"/>
<feGaussianBlur stdDeviation="4.5"/>
<feComposite in2="hardAlpha" operator="arithmetic" k2="-1" k3="1"/>
<feColorMatrix type="matrix" values="0 0 0 0 0.195833 0 0 0 0 0.195833 0 0 0 0 0.195833 0 0 0 0.15 0"/>
<feBlend mode="normal" in2="shape" result="effect3_innerShadow_4_1636"/>
<feColorMatrix in="SourceAlpha" type="matrix" values="0 0 0 0 0 0 0 0 0 0 0 0 0 0 0 0 0 0 127 0" result="hardAlpha"/>
<feOffset dx="2" dy="2"/>
<feGaussianBlur stdDeviation="2"/>
<feComposite in2="hardAlpha" operator="arithmetic" k2="-1" k3="1"/>
<feColorMatrix type="matrix" values="0 0 0 0 1 0 0 0 0 1 0 0 0 0 1 0 0 0 1 0"/>
<feBlend mode="normal" in2="effect3_innerShadow_4_1636" result="effect4_innerShadow_4_1636"/>
</filter>
</defs>
</svg>
