<svg width="14" height="24" viewBox="0 0 14 24" fill="none" xmlns="http://www.w3.org/2000/svg">
<path fill-rule="evenodd" clip-rule="evenodd" d="M0.873989 6.21927C0.873989 2.78451 3.66204 0 7.10141 0C10.5407 0 13.3287 2.78451 13.3287 6.21927C13.3287 9.65411 10.5407 12.4388 7.10141 12.4388C3.66204 12.4388 0.873989 9.65411 0.873989 6.21927ZM4.52712 6.21935C4.52712 7.6392 5.67971 8.79035 7.10141 8.79035C8.52311 8.79035 9.67568 7.6392 9.67568 6.21935C9.67568 4.79951 8.52311 3.64845 7.10141 3.64845C5.67971 3.64845 4.52712 4.79951 4.52712 6.21935ZM13.366 15.6378C13.287 15.7011 11.793 16.8802 9.29997 17.3874L13.0631 21.1122C13.7249 21.7721 13.7257 22.8428 13.065 23.5037C12.4042 24.1646 11.3323 24.1656 10.6704 23.5056L7.01685 19.9525L3.69859 23.4827C3.36636 23.8269 2.92317 24 2.47954 24C2.05641 24 1.63292 23.8427 1.30434 23.5263C0.631139 22.878 0.611625 21.8075 1.26076 21.1352L4.8327 17.4071C2.26975 16.9118 0.71411 15.702 0.633991 15.6378C-0.0955245 15.0535 -0.212716 13.9893 0.372346 13.2606C0.957318 12.532 2.0229 12.415 2.7526 12.9992C2.76801 13.0117 4.39513 14.2324 7.01676 14.2342C9.63859 14.2324 11.232 13.0117 11.2474 12.9992C11.9771 12.415 13.0427 12.532 13.6277 13.2606C14.2127 13.9893 14.0955 15.0535 13.366 15.6378Z" fill="#7A8779"/>
</svg>
