<svg width="123" height="165" viewBox="0 0 123 165" fill="none" xmlns="http://www.w3.org/2000/svg">
<path d="M0.672852 140.34C3.86195 125.095 4.14899 115.913 7.27431 100.668C7.60525 97.96 8.57855 95.3708 10.1126 93.1177C12.2133 90.9119 14.8862 89.3385 17.8302 88.5746C47.5076 78.3148 79.5734 77.2392 109.868 85.4873C111.893 85.8874 113.788 86.7831 115.385 88.0947C117.314 89.9664 117.888 92.8938 118.319 95.5013C120.776 110.744 122.097 126.149 122.273 141.588C122.388 142.883 122.196 144.188 121.715 145.395C121.125 146.563 105.77 165.007 59.1131 164.447C35.6095 164.159 5.60001 148.451 0.672852 140.34Z" fill="#3AAA35"/>
<path d="M49.2575 82.096C48.789 83.3801 48.5829 84.7456 48.6515 86.1112C48.9437 87.5242 49.5791 88.8429 50.5012 89.9504L54.6311 95.9172C55.5077 97.392 56.6872 98.6626 58.0913 99.6445C59.4782 100.41 61.0571 100.755 62.6357 100.636C64.7895 100.467 66.8829 99.8403 68.7769 98.7978C70.671 97.7553 72.3226 96.3208 73.6222 94.5895C76.2 91.0975 77.8763 87.0197 78.5015 82.7199C78.7068 81.9279 78.7068 81.0964 78.5015 80.3044C78.2278 79.7349 77.8908 79.1983 77.4969 78.7047C74.7703 74.6415 76.4286 68.2108 72.6017 65.1874C71.2736 64.2849 69.7573 63.6994 68.1688 63.4758C64.8889 62.6103 61.4776 62.3608 58.1072 62.7399C54.9181 63.2678 50.5172 65.2994 50.0388 68.8827C49.8315 70.4824 50.565 72.6419 50.4853 74.3696C50.3649 76.9829 49.953 79.5746 49.2575 82.096Z" fill="url(#paint0_linear_54_5)"/>
<path d="M51.5068 73.1538C51.5068 73.1538 52.5114 83.5037 59.1766 83.5037C65.8418 83.5037 75.5367 75.9212 75.9035 72.3059C76.2702 68.6907 51.5068 73.1538 51.5068 73.1538Z" fill="url(#paint1_linear_54_5)"/>
<path d="M42.737 64.1955C43.2721 66.1177 44.1178 67.9389 45.2405 69.5864C47.8555 73.0578 52.4 74.3855 56.6893 75.0573C60.7836 75.8406 64.9838 75.8894 69.0949 75.2013C73.2304 74.4842 76.9834 72.3328 79.6987 69.1225C81.4823 66.6126 82.7854 63.7919 83.5416 60.8042C85.1191 55.6366 86.2868 50.3518 87.0336 44.9994C87.889 40.6232 87.6978 36.1058 86.4756 31.8181C83.7329 23.9477 75.1702 19.3246 66.8945 18.7487C58.6188 18.1728 50.4865 20.8763 42.6573 23.6757C39.8668 24.6835 36.0878 26.0112 35.737 29.4665C35.4499 32.41 36.7096 36.4411 37.0923 39.4325C38.1891 47.8474 40.0791 56.1388 42.737 64.1955Z" fill="url(#paint2_linear_54_5)"/>
<path d="M89.5355 45.4953C90.8362 43.7602 91.7153 41.7444 92.1027 39.6085C92.774 36.8161 93.2324 33.9764 93.4741 31.1142C93.8727 26.3152 93.0435 20.4444 88.6904 18.4128C88.1132 18.1974 87.5747 17.8894 87.0959 17.501C86.6129 16.9447 86.2685 16.2813 86.0913 15.5653C84.4967 10.6543 79.7131 7.56695 75.2802 4.91148C72.7826 3.31705 70.1066 2.02307 67.3075 1.05626C59.829 -1.21529 51.8244 1.05626 44.346 3.26382C36.8675 5.47137 28.7672 7.59894 21.3844 5.03946C20.9136 6.19954 20.782 7.47023 21.0051 8.70264C21.2282 9.93505 21.7967 11.0782 22.6441 11.9981C22.253 12.1666 21.9012 12.415 21.6112 12.7276C21.3211 13.0401 21.0993 13.4099 20.9597 13.8133C20.8202 14.2168 20.766 14.645 20.8007 15.0706C20.8354 15.4962 20.9582 15.9099 21.1612 16.2852C22.0654 17.7701 23.3852 18.9551 24.9562 19.6925C23.4893 19.6925 22.5325 21.4682 22.8195 22.8919C23.2447 24.3183 24.131 25.5621 25.3389 26.4271C27.1143 27.9816 29.0247 29.3735 31.0474 30.5863C29.6717 35.2462 29.8231 40.226 31.4793 44.7931C33.1356 49.3602 36.2092 53.2735 40.248 55.9572C41.0321 47.8288 40.5642 39.6277 38.8607 31.6421L46.5464 27.5149C46.0903 27.7324 45.6853 28.0445 45.3583 28.4305C45.0312 28.8166 44.7894 29.2678 44.6489 29.7545C50.5647 28.9706 56.4964 28.1548 62.46 27.9628C65.4259 27.8509 68.4077 27.8669 71.3736 27.8828C73.3219 27.7406 75.2754 28.0755 77.0661 28.8587C78.8527 29.991 80.2238 31.6753 80.9728 33.6577C82.6789 37.4489 82.5673 41.0002 83.3008 44.8554C84.0343 48.6627 87.2234 48.2148 89.5355 45.4953Z" fill="#3E3E54"/>
<path d="M34.7324 48.6627C34.442 49.0697 34.242 49.5345 34.1457 50.0257C34.0494 50.5168 34.0592 51.023 34.1743 51.5101C34.4106 52.4792 34.8817 53.3748 35.5457 54.1176C36.8836 55.7018 38.6861 56.8215 40.6961 57.3169L38.6072 51.2061C38.368 50.4703 38.081 48.4227 37.5229 47.9268C36.9648 47.4309 35.2427 48.0068 34.7324 48.6627Z" fill="url(#paint3_linear_54_5)"/>
<path d="M88.0539 46.3591C88.4042 46.0906 88.8328 45.9451 89.2737 45.9451C89.7146 45.9451 90.1432 46.0906 90.4935 46.3591C90.6949 46.6554 90.8255 46.9942 90.8752 47.3493C90.925 47.7044 90.8926 48.0662 90.7806 48.4067C90.6613 49.2102 90.4249 49.9917 90.079 50.7262C89.5606 51.6337 88.9103 52.4586 88.1495 53.1737C87.2247 54.1915 86.149 55.0602 84.9604 55.7492L86.555 50.1664C86.9855 48.5667 86.6188 47.223 88.0539 46.3591Z" fill="url(#paint4_linear_54_5)"/>
<defs>
<linearGradient id="paint0_linear_54_5" x1="48.6037" y1="81.5841" x2="78.645" y2="81.5841" gradientUnits="userSpaceOnUse">
<stop stop-color="#E5C5D5"/>
<stop offset="0.42" stop-color="#EAD4D1"/>
<stop offset="1" stop-color="#F0E9CB"/>
</linearGradient>
<linearGradient id="paint1_linear_54_5" x1="58.2518" y1="97.4689" x2="73.9583" y2="26.5604" gradientUnits="userSpaceOnUse">
<stop stop-opacity="0"/>
<stop offset="0.99"/>
</linearGradient>
<linearGradient id="paint2_linear_54_5" x1="35.7051" y1="47.191" x2="87.5279" y2="47.191" gradientUnits="userSpaceOnUse">
<stop stop-color="#E5C5D5"/>
<stop offset="0.42" stop-color="#EAD4D1"/>
<stop offset="1" stop-color="#F0E9CB"/>
</linearGradient>
<linearGradient id="paint3_linear_54_5" x1="34.0787" y1="52.4379" x2="40.6961" y2="52.4379" gradientUnits="userSpaceOnUse">
<stop stop-color="#E5C5D5"/>
<stop offset="0.42" stop-color="#EAD4D1"/>
<stop offset="1" stop-color="#F0E9CB"/>
</linearGradient>
<linearGradient id="paint4_linear_54_5" x1="85.0242" y1="50.8062" x2="90.8762" y2="50.8062" gradientUnits="userSpaceOnUse">
<stop stop-color="#E5C5D5"/>
<stop offset="0.42" stop-color="#EAD4D1"/>
<stop offset="1" stop-color="#F0E9CB"/>
</linearGradient>
</defs>
</svg>
