<svg width="22" height="20" viewBox="0 0 22 20" fill="none" xmlns="http://www.w3.org/2000/svg">
<path fill-rule="evenodd" clip-rule="evenodd" d="M0.489708 8.35103C7.17804 5.68137 14.0769 2.84407 20.7653 0.174398C21.7369 -0.249276 22.1776 0.109193 21.9341 1.13862C20.7576 7.07548 19.4992 13.3816 18.3226 19.3184C18.1773 20.0917 17.6861 20.1821 17.0685 19.7156C15.5924 18.608 13.9384 17.3657 12.4622 16.2582C11.8741 15.8268 11.4692 15.8358 10.864 16.3567C10.1945 16.9154 9.31612 17.7078 8.64666 18.2665C7.98556 18.7753 7.54959 18.6324 7.30075 17.8687L5.44628 11.5667C3.79753 10.9168 2.10157 10.2128 0.452819 9.5629C-0.169796 9.32035 -0.143587 8.60715 0.489708 8.35103ZM7.15213 10.4707C10.4292 8.35923 13.6921 6.20197 16.9692 4.09049C17.3157 3.88535 17.4769 4.12225 17.2045 4.40955C14.587 6.96127 11.9693 9.51299 9.35172 12.0647C8.78959 12.6047 8.57367 13.0308 8.49527 13.6442C8.4307 14.2109 8.3665 14.8793 8.30193 15.4461C8.24871 15.9534 7.8077 16.0472 7.64128 15.5365C7.34999 14.456 7.04344 13.293 6.75215 12.2125C6.55827 11.4975 6.51362 10.8925 7.15213 10.4707Z" fill="#7A8779"/>
</svg>
