<svg width="55" height="52" viewBox="0 0 55 52" fill="none" xmlns="http://www.w3.org/2000/svg">
<g filter="url(#filter0_d_4_1626)">
<rect x="32.6658" width="28.0245" height="27.8117" rx="8" transform="rotate(45 32.6658 0)" fill="#3AAA35"/>
</g>
<g filter="url(#filter1_bdii_4_1626)">
<path d="M41 24.4386C41 24.9983 40.7864 25.5604 40.3591 25.9876L35.4373 30.9095C35.0117 31.3976 34.4512 31.6095 33.8906 31.6095C32.641 31.6095 31.7031 30.5875 31.7031 29.422C31.7031 28.8623 31.9167 28.3023 32.344 27.8757L33.5352 26.6876H25.6875V34.5353L26.8756 33.3472C27.3008 32.9152 27.8613 32.7032 28.4219 32.7032C29.6715 32.7032 30.6094 33.7252 30.6094 34.8907C30.6094 35.4505 30.3958 36.0105 29.9685 36.437L25.0466 41.3589C24.6211 41.7882 24.0605 42.0001 23.5 42.0001C22.9395 42.0001 22.3803 41.7865 21.9537 41.3593L17.0318 36.4374C16.6025 36.0118 16.3906 35.4513 16.3906 34.8907C16.3906 33.7252 17.3292 32.7032 18.5781 32.7032C19.1379 32.7032 19.6979 32.9169 20.1244 33.3441L21.3125 34.5353V26.6876H13.4717L14.6598 27.8757C15.085 28.3009 15.2969 28.8615 15.2969 29.422C15.2969 30.5875 14.3583 31.6095 13.1094 31.6095C12.5496 31.6095 11.9896 31.3959 11.5631 30.9686L6.64121 26.0468C6.21362 25.6212 6 25.0607 6 24.4386C6 23.8165 6.21362 23.3216 6.64087 22.8944L11.5627 17.9725C11.9903 17.6027 12.5495 17.3907 13.1094 17.3907C14.359 17.3907 15.2969 18.4127 15.2969 19.5782C15.2969 20.138 15.0833 20.698 14.656 21.1245L13.4717 22.3126H21.3125V14.4718L20.123 15.6544C19.6992 16.0851 19.1387 16.297 18.5781 16.297C17.3285 16.297 16.3906 15.275 16.3906 14.1095C16.3906 13.5498 16.6042 12.9898 17.0315 12.5632L21.9534 7.64133C22.3789 7.21375 22.9395 7.00012 23.5 7.00012C24.0605 7.00012 24.6197 7.21375 25.0463 7.64099L29.9682 12.5629C30.3975 12.9905 30.6094 13.5496 30.6094 14.1095C30.6094 15.275 29.6708 16.297 28.4219 16.297C27.8621 16.297 27.3021 16.0834 26.8756 15.6561L25.6875 14.4718V22.3126H33.5352L32.3471 21.1245C31.915 20.6993 31.7031 20.1388 31.7031 19.5782C31.7031 18.4127 32.6417 17.3907 33.8906 17.3907C34.4504 17.3907 35.0104 17.6044 35.4369 18.0316L40.3588 22.9535C40.7881 23.379 41 23.9396 41 24.4386Z" fill="#E8E8E8" fill-opacity="0.6" shape-rendering="crispEdges"/>
<path d="M35.0837 30.5559L35.0716 30.568L35.0604 30.5809C34.7385 30.9501 34.3205 31.1095 33.8906 31.1095C32.9296 31.1095 32.2031 30.324 32.2031 29.422C32.2031 28.9895 32.3678 28.5586 32.6971 28.2297C32.6971 28.2297 32.6972 28.2296 32.6973 28.2295L33.8883 27.0416L34.7445 26.1876H33.5352H25.6875H25.1875V26.6876V34.5353V35.7424L26.0411 34.8888L27.2291 33.7007L27.2292 33.7008L27.2319 33.6979C27.5577 33.3669 27.9874 33.2032 28.4219 33.2032C29.3829 33.2032 30.1094 33.9888 30.1094 34.8907C30.1094 35.3233 29.9446 35.7543 29.6152 36.0832L29.615 36.0835L24.6931 41.0054L24.6915 41.0069C24.365 41.3363 23.9346 41.5001 23.5 41.5001C23.0667 41.5001 22.6365 41.3355 22.3075 41.006L22.3073 41.0057L17.3854 36.0838L17.3838 36.0823C17.0544 35.7558 16.8906 35.3254 16.8906 34.8907C16.8906 33.9889 17.6177 33.2032 18.5781 33.2032C19.0106 33.2032 19.4415 33.3679 19.7704 33.6972C19.7705 33.6973 19.7705 33.6973 19.7706 33.6974L20.9585 34.8884L21.8125 35.7446V34.5353V26.6876V26.1876H21.3125H13.4717H12.2646L13.1181 27.0412L14.3062 28.2293C14.6328 28.5558 14.7969 28.987 14.7969 29.422C14.7969 30.3239 14.0698 31.1095 13.1094 31.1095C12.6768 31.1095 12.2458 30.9448 11.9169 30.6154L11.9166 30.6151L6.99477 25.6932L6.99391 25.6924C6.66984 25.3698 6.5 24.9412 6.5 24.4386C6.5 23.9521 6.65884 23.5835 6.99442 23.2479L11.9027 18.3396C12.2399 18.0534 12.6779 17.8907 13.1094 17.8907C14.0704 17.8907 14.7969 18.6763 14.7969 19.5782C14.7969 20.0108 14.6321 20.4418 14.3027 20.7707L14.3019 20.7715L13.1176 21.9596L12.2673 22.8126H13.4717H21.3125H21.8125V22.3126V14.4718V13.2696L20.96 14.1172L19.7705 15.2998L19.7705 15.2998L19.7667 15.3037C19.4424 15.6332 19.0129 15.797 18.5781 15.797C17.6171 15.797 16.8906 15.0115 16.8906 14.1095C16.8906 13.6769 17.0554 13.2459 17.3848 12.917L17.385 12.9168L22.3069 7.99489L22.3078 7.99404C22.6352 7.66505 23.0663 7.50012 23.5 7.50012C23.9333 7.50012 24.3635 7.66479 24.6925 7.99426L24.6927 7.99454L29.6146 12.9164L29.6153 12.9171C29.946 13.2465 30.1094 13.6762 30.1094 14.1095C30.1094 15.0114 29.3823 15.797 28.4219 15.797C27.9893 15.797 27.5583 15.6323 27.2294 15.3029L27.2286 15.302L26.0405 14.1177L25.1875 13.2674V14.4718V22.3126V22.8126H25.6875H33.5352H34.7423L33.8887 21.9591L32.7006 20.771L32.7006 20.771L32.6978 20.7682C32.3668 20.4424 32.2031 20.0127 32.2031 19.5782C32.2031 18.6764 32.9302 17.8907 33.8906 17.8907C34.3232 17.8907 34.7542 18.0555 35.0831 18.3849L35.0834 18.3852L40.0052 23.307L40.0068 23.3086C40.3415 23.6404 40.5 24.0731 40.5 24.4386C40.5 24.8716 40.335 25.3047 40.0056 25.6341L35.0837 30.5559Z" stroke="white" shape-rendering="crispEdges"/>
</g>
<defs>
<filter id="filter0_d_4_1626" x="13.3137" y="0.313721" width="40.8547" height="40.8547" filterUnits="userSpaceOnUse" color-interpolation-filters="sRGB">
<feFlood flood-opacity="0" result="BackgroundImageFix"/>
<feColorMatrix in="SourceAlpha" type="matrix" values="0 0 0 0 0 0 0 0 0 0 0 0 0 0 0 0 0 0 127 0" result="hardAlpha"/>
<feOffset dx="1" dy="1"/>
<feGaussianBlur stdDeviation="2"/>
<feComposite in2="hardAlpha" operator="out"/>
<feColorMatrix type="matrix" values="0 0 0 0 0.522901 0 0 0 0 0.820833 0 0 0 0 0.509601 0 0 0 1 0"/>
<feBlend mode="normal" in2="BackgroundImageFix" result="effect1_dropShadow_4_1626"/>
<feBlend mode="normal" in="SourceGraphic" in2="effect1_dropShadow_4_1626" result="shape"/>
</filter>
<filter id="filter1_bdii_4_1626" x="0" y="1.00012" width="51" height="51" filterUnits="userSpaceOnUse" color-interpolation-filters="sRGB">
<feFlood flood-opacity="0" result="BackgroundImageFix"/>
<feGaussianBlur in="BackgroundImageFix" stdDeviation="1.5"/>
<feComposite in2="SourceAlpha" operator="in" result="effect1_backgroundBlur_4_1626"/>
<feColorMatrix in="SourceAlpha" type="matrix" values="0 0 0 0 0 0 0 0 0 0 0 0 0 0 0 0 0 0 127 0" result="hardAlpha"/>
<feOffset dx="2" dy="2"/>
<feGaussianBlur stdDeviation="4"/>
<feComposite in2="hardAlpha" operator="out"/>
<feColorMatrix type="matrix" values="0 0 0 0 0.234444 0 0 0 0 0.879167 0 0 0 0 0.417514 0 0 0 0.6 0"/>
<feBlend mode="normal" in2="effect1_backgroundBlur_4_1626" result="effect2_dropShadow_4_1626"/>
<feBlend mode="normal" in="SourceGraphic" in2="effect2_dropShadow_4_1626" result="shape"/>
<feColorMatrix in="SourceAlpha" type="matrix" values="0 0 0 0 0 0 0 0 0 0 0 0 0 0 0 0 0 0 127 0" result="hardAlpha"/>
<feOffset dx="-2" dy="-2"/>
<feGaussianBlur stdDeviation="4.5"/>
<feComposite in2="hardAlpha" operator="arithmetic" k2="-1" k3="1"/>
<feColorMatrix type="matrix" values="0 0 0 0 0.195833 0 0 0 0 0.195833 0 0 0 0 0.195833 0 0 0 0.15 0"/>
<feBlend mode="normal" in2="shape" result="effect3_innerShadow_4_1626"/>
<feColorMatrix in="SourceAlpha" type="matrix" values="0 0 0 0 0 0 0 0 0 0 0 0 0 0 0 0 0 0 127 0" result="hardAlpha"/>
<feOffset dx="2" dy="2"/>
<feGaussianBlur stdDeviation="2"/>
<feComposite in2="hardAlpha" operator="arithmetic" k2="-1" k3="1"/>
<feColorMatrix type="matrix" values="0 0 0 0 1 0 0 0 0 1 0 0 0 0 1 0 0 0 1 0"/>
<feBlend mode="normal" in2="effect3_innerShadow_4_1626" result="effect4_innerShadow_4_1626"/>
</filter>
</defs>
</svg>
