<svg width="56" height="48" viewBox="0 0 56 48" fill="none" xmlns="http://www.w3.org/2000/svg">
<g filter="url(#filter0_d_4_1646)">
<rect x="14" y="3" width="37" height="29" rx="8" fill="#3AAA35"/>
</g>
<g filter="url(#filter1_bdii_4_1646)">
<path d="M36.625 7C37.835 7 38.8125 7.99158 38.8125 9.21429C38.8125 10.437 37.835 11.4286 36.625 11.4286H11.4688C10.8645 11.4286 10.375 11.9268 10.375 12.5357C10.375 13.1446 10.8645 13.6429 11.4688 13.6429H36.625C39.0381 13.6429 41 15.6288 41 18.0714V33.5714C41 36.0141 39.0381 38 36.625 38H10.375C7.9585 38 6 36.0141 6 33.5714V11.4286C6 8.98248 7.9585 7 10.375 7H36.625ZM34.4375 28.0357C35.6475 28.0357 36.625 27.0462 36.625 25.8214C36.625 24.5967 35.6475 23.6071 34.4375 23.6071C33.2275 23.6071 32.25 24.5967 32.25 25.8214C32.25 27.0462 33.2275 28.0357 34.4375 28.0357Z" fill="#E8E8E8" fill-opacity="0.6" shape-rendering="crispEdges"/>
<path d="M36.625 7.5C37.5528 7.5 38.3125 8.26167 38.3125 9.21429C38.3125 10.1669 37.5528 10.9286 36.625 10.9286H11.4688C10.5818 10.9286 9.875 11.6572 9.875 12.5357C9.875 13.4142 10.5818 14.1429 11.4688 14.1429H36.625C38.7562 14.1429 40.5 15.8992 40.5 18.0714V33.5714C40.5 35.7437 38.7562 37.5 36.625 37.5H10.375C8.24061 37.5 6.5 35.7439 6.5 33.5714V11.4286C6.5 9.25287 8.24036 7.5 10.375 7.5H36.625ZM34.4375 28.5357C35.9293 28.5357 37.125 27.3166 37.125 25.8214C37.125 24.3263 35.9293 23.1071 34.4375 23.1071C32.9457 23.1071 31.75 24.3263 31.75 25.8214C31.75 27.3166 32.9457 28.5357 34.4375 28.5357Z" stroke="white" shape-rendering="crispEdges"/>
</g>
<defs>
<filter id="filter0_d_4_1646" x="11" y="0" width="45" height="37" filterUnits="userSpaceOnUse" color-interpolation-filters="sRGB">
<feFlood flood-opacity="0" result="BackgroundImageFix"/>
<feColorMatrix in="SourceAlpha" type="matrix" values="0 0 0 0 0 0 0 0 0 0 0 0 0 0 0 0 0 0 127 0" result="hardAlpha"/>
<feOffset dx="1" dy="1"/>
<feGaussianBlur stdDeviation="2"/>
<feComposite in2="hardAlpha" operator="out"/>
<feColorMatrix type="matrix" values="0 0 0 0 0.522901 0 0 0 0 0.820833 0 0 0 0 0.509601 0 0 0 1 0"/>
<feBlend mode="normal" in2="BackgroundImageFix" result="effect1_dropShadow_4_1646"/>
<feBlend mode="normal" in="SourceGraphic" in2="effect1_dropShadow_4_1646" result="shape"/>
</filter>
<filter id="filter1_bdii_4_1646" x="0" y="1" width="51" height="47" filterUnits="userSpaceOnUse" color-interpolation-filters="sRGB">
<feFlood flood-opacity="0" result="BackgroundImageFix"/>
<feGaussianBlur in="BackgroundImageFix" stdDeviation="1.5"/>
<feComposite in2="SourceAlpha" operator="in" result="effect1_backgroundBlur_4_1646"/>
<feColorMatrix in="SourceAlpha" type="matrix" values="0 0 0 0 0 0 0 0 0 0 0 0 0 0 0 0 0 0 127 0" result="hardAlpha"/>
<feOffset dx="2" dy="2"/>
<feGaussianBlur stdDeviation="4"/>
<feComposite in2="hardAlpha" operator="out"/>
<feColorMatrix type="matrix" values="0 0 0 0 0.234444 0 0 0 0 0.879167 0 0 0 0 0.417514 0 0 0 0.6 0"/>
<feBlend mode="normal" in2="effect1_backgroundBlur_4_1646" result="effect2_dropShadow_4_1646"/>
<feBlend mode="normal" in="SourceGraphic" in2="effect2_dropShadow_4_1646" result="shape"/>
<feColorMatrix in="SourceAlpha" type="matrix" values="0 0 0 0 0 0 0 0 0 0 0 0 0 0 0 0 0 0 127 0" result="hardAlpha"/>
<feOffset dx="-2" dy="-2"/>
<feGaussianBlur stdDeviation="4.5"/>
<feComposite in2="hardAlpha" operator="arithmetic" k2="-1" k3="1"/>
<feColorMatrix type="matrix" values="0 0 0 0 0.195833 0 0 0 0 0.195833 0 0 0 0 0.195833 0 0 0 0.15 0"/>
<feBlend mode="normal" in2="shape" result="effect3_innerShadow_4_1646"/>
<feColorMatrix in="SourceAlpha" type="matrix" values="0 0 0 0 0 0 0 0 0 0 0 0 0 0 0 0 0 0 127 0" result="hardAlpha"/>
<feOffset dx="2" dy="2"/>
<feGaussianBlur stdDeviation="2"/>
<feComposite in2="hardAlpha" operator="arithmetic" k2="-1" k3="1"/>
<feColorMatrix type="matrix" values="0 0 0 0 1 0 0 0 0 1 0 0 0 0 1 0 0 0 1 0"/>
<feBlend mode="normal" in2="effect3_innerShadow_4_1646" result="effect4_innerShadow_4_1646"/>
</filter>
</defs>
</svg>
